<?xml version="1.0" encoding="UTF-8"?>
<svg xmlns="http://www.w3.org/2000/svg" xmlns:xlink="http://www.w3.org/1999/xlink" width="40px" height="40px" viewBox="0 0 40 40" version="1.1">
<g id="surface1">
<path style=" stroke:none;fill-rule:nonzero;fill:rgb(99.607843%,99.607843%,99.607843%);fill-opacity:1;" d="M 0 0 C 13.199219 0 26.398438 0 40 0 C 40 13.199219 40 26.398438 40 40 C 26.800781 40 13.601562 40 0 40 C 0 26.800781 0 13.601562 0 0 Z M 0 0 "/>
<path style=" stroke:none;fill-rule:nonzero;fill:rgb(99.607843%,99.607843%,99.607843%);fill-opacity:1;" d="M 20.988281 7.867188 C 21.113281 7.917969 21.113281 7.917969 21.265625 7.898438 C 21.476562 7.910156 21.5625 7.976562 21.734375 8.101562 C 22.128906 8.351562 22.46875 8.347656 22.925781 8.339844 C 24.246094 8.359375 25.203125 8.714844 26.144531 9.671875 C 26.1875 9.730469 26.230469 9.785156 26.273438 9.84375 C 26.554688 10.179688 26.988281 10.355469 27.414062 10.429688 C 27.601562 10.445312 27.785156 10.457031 27.972656 10.457031 C 27.929688 10.523438 27.886719 10.585938 27.84375 10.652344 C 27.882812 10.679688 27.925781 10.707031 27.96875 10.734375 C 28.550781 11.128906 29.003906 11.539062 29.347656 12.15625 C 29.390625 12.050781 29.433594 11.941406 29.476562 11.828125 C 29.519531 11.828125 29.5625 11.828125 29.609375 11.828125 C 29.609375 11.898438 29.609375 11.96875 29.613281 12.039062 C 29.632812 12.640625 29.664062 13.152344 30.078125 13.628906 C 30.136719 13.679688 30.199219 13.734375 30.261719 13.789062 C 30.367188 13.890625 30.46875 13.988281 30.570312 14.089844 C 30.621094 14.136719 30.671875 14.1875 30.726562 14.238281 C 30.847656 14.378906 30.890625 14.457031 30.914062 14.640625 C 30.957031 14.640625 31 14.640625 31.046875 14.640625 C 31.121094 14.777344 31.195312 14.917969 31.265625 15.058594 C 31.285156 15.09375 31.308594 15.132812 31.328125 15.171875 C 31.675781 15.84375 31.65625 16.554688 31.652344 17.289062 C 31.660156 17.703125 31.691406 17.984375 31.945312 18.320312 C 32.035156 18.441406 32.101562 18.554688 32.15625 18.691406 C 32.136719 18.734375 32.113281 18.777344 32.089844 18.824219 C 32.121094 18.9375 32.152344 19.054688 32.183594 19.167969 C 32.367188 19.859375 32.347656 20.507812 32.089844 21.175781 C 32.074219 21.222656 32.058594 21.269531 32.042969 21.320312 C 31.972656 21.511719 31.90625 21.683594 31.792969 21.859375 C 31.652344 22.207031 31.667969 22.546875 31.667969 22.917969 C 31.65625 24.023438 31.414062 24.980469 30.652344 25.816406 C 30.546875 25.910156 30.4375 26.003906 30.328125 26.09375 C 29.847656 26.515625 29.605469 26.996094 29.550781 27.628906 C 29.546875 27.746094 29.542969 27.859375 29.542969 27.972656 C 29.476562 27.929688 29.414062 27.886719 29.347656 27.84375 C 29.3125 27.890625 29.28125 27.9375 29.25 27.984375 C 28.851562 28.542969 28.464844 29.035156 27.84375 29.347656 C 27.800781 29.347656 27.757812 29.347656 27.710938 29.347656 C 27.710938 29.390625 27.710938 29.433594 27.710938 29.476562 C 27.753906 29.5 27.796875 29.519531 27.84375 29.542969 C 27.757812 29.546875 27.675781 29.554688 27.589844 29.558594 C 26.949219 29.628906 26.472656 29.894531 26.0625 30.378906 C 25.4375 31.105469 24.609375 31.542969 23.660156 31.632812 C 23.386719 31.648438 23.113281 31.660156 22.839844 31.667969 C 22.375 31.6875 21.933594 31.714844 21.570312 32.027344 C 21.527344 32.027344 21.480469 32.027344 21.4375 32.027344 C 21.4375 32.070312 21.4375 32.113281 21.4375 32.15625 C 21.394531 32.15625 21.351562 32.15625 21.308594 32.15625 C 21.285156 32.113281 21.265625 32.070312 21.242188 32.027344 C 21.203125 32.046875 21.164062 32.0625 21.121094 32.082031 C 20.378906 32.398438 19.570312 32.394531 18.824219 32.089844 C 18.867188 32.222656 18.910156 32.351562 18.953125 32.484375 C 18.910156 32.484375 18.867188 32.484375 18.824219 32.484375 C 18.714844 32.359375 18.613281 32.230469 18.511719 32.101562 C 18.074219 31.683594 17.625 31.664062 17.042969 31.664062 C 15.714844 31.65625 14.785156 31.253906 13.855469 30.328125 C 13.816406 30.289062 13.777344 30.253906 13.734375 30.214844 C 13.660156 30.128906 13.660156 30.128906 13.660156 30 C 13.609375 29.976562 13.609375 29.976562 13.558594 29.949219 C 13.398438 29.871094 13.398438 29.871094 13.207031 29.734375 C 12.867188 29.535156 12.472656 29.554688 12.089844 29.542969 C 12.179688 29.519531 12.265625 29.5 12.351562 29.476562 C 12.351562 29.433594 12.351562 29.390625 12.351562 29.347656 C 12.308594 29.34375 12.265625 29.339844 12.222656 29.339844 C 11.585938 29.152344 11.039062 28.5 10.707031 27.953125 C 10.652344 27.84375 10.652344 27.84375 10.652344 27.710938 C 10.589844 27.734375 10.523438 27.753906 10.457031 27.777344 C 10.453125 27.691406 10.445312 27.609375 10.441406 27.519531 C 10.382812 27.003906 10.195312 26.621094 9.804688 26.273438 C 9.050781 25.582031 8.4375 24.710938 8.367188 23.660156 C 8.363281 23.535156 8.359375 23.414062 8.359375 23.289062 C 8.359375 23.222656 8.355469 23.15625 8.355469 23.089844 C 8.355469 22.953125 8.355469 22.816406 8.355469 22.679688 C 8.34375 22.230469 8.257812 21.953125 7.992188 21.585938 C 7.894531 21.410156 7.898438 21.308594 7.910156 21.109375 C 7.867188 20.980469 7.824219 20.847656 7.777344 20.71875 C 7.636719 20.128906 7.699219 19.535156 7.84375 18.953125 C 7.886719 18.953125 7.929688 18.953125 7.972656 18.953125 C 7.972656 18.890625 7.972656 18.824219 7.972656 18.757812 C 7.929688 18.738281 7.886719 18.714844 7.84375 18.691406 C 7.875 18.644531 7.90625 18.597656 7.941406 18.546875 C 8.328125 17.894531 8.34375 17.324219 8.355469 16.574219 C 8.375 15.550781 8.808594 14.742188 9.503906 14.011719 C 9.671875 13.855469 9.671875 13.855469 9.816406 13.785156 C 9.972656 13.707031 9.996094 13.621094 10.066406 13.464844 C 10.121094 13.382812 10.175781 13.304688 10.234375 13.222656 C 10.414062 12.941406 10.449219 12.683594 10.457031 12.351562 C 10.523438 12.351562 10.585938 12.351562 10.652344 12.351562 C 10.664062 12.28125 10.664062 12.28125 10.671875 12.207031 C 10.8125 11.644531 11.433594 11.097656 11.910156 10.796875 C 11.992188 10.75 12.074219 10.699219 12.15625 10.652344 C 12.339844 10.542969 12.339844 10.542969 12.417969 10.457031 C 12.496094 10.449219 12.574219 10.445312 12.65625 10.4375 C 13.121094 10.382812 13.410156 10.140625 13.726562 9.804688 C 14.457031 9.03125 15.289062 8.402344 16.398438 8.359375 C 16.460938 8.359375 16.527344 8.359375 16.59375 8.359375 C 16.667969 8.359375 16.738281 8.355469 16.8125 8.355469 C 16.960938 8.355469 17.109375 8.355469 17.261719 8.355469 C 17.742188 8.347656 18.0625 8.257812 18.46875 8 C 18.636719 7.902344 18.765625 7.871094 18.953125 7.84375 C 19.027344 7.820312 19.097656 7.796875 19.171875 7.773438 C 19.742188 7.628906 20.445312 7.628906 20.988281 7.867188 Z M 20.988281 7.867188 "/>
<path style=" stroke:none;fill-rule:nonzero;fill:rgb(1.960784%,1.960784%,1.960784%);fill-opacity:1;" d="M 23.660156 5.292969 C 23.824219 5.4375 23.972656 5.589844 24.117188 5.75 C 24.734375 6.402344 25.535156 6.960938 26.464844 7 C 26.53125 7.003906 26.601562 7.003906 26.671875 7.003906 C 26.746094 7.003906 26.824219 7.003906 26.902344 7.007812 C 27.058594 7.007812 27.21875 7.011719 27.375 7.011719 C 27.929688 7.023438 28.339844 7.109375 28.746094 7.503906 C 29.148438 7.933594 29.257812 8.335938 29.242188 8.917969 C 29.179688 9.46875 28.914062 9.824219 28.5 10.171875 C 28.054688 10.46875 27.507812 10.464844 26.992188 10.390625 C 26.535156 10.234375 26.257812 9.925781 25.957031 9.5625 C 25.339844 8.894531 24.480469 8.480469 23.578125 8.414062 C 23.289062 8.410156 23.003906 8.410156 22.714844 8.414062 C 22.195312 8.410156 21.84375 8.300781 21.4375 7.972656 C 21.03125 7.535156 20.953125 7.070312 20.964844 6.484375 C 20.996094 6.066406 21.136719 5.726562 21.4375 5.425781 C 22.09375 4.949219 22.953125 4.820312 23.660156 5.292969 Z M 23.660156 5.292969 "/>
<path style=" stroke:none;fill-rule:nonzero;fill:rgb(1.960784%,1.960784%,1.960784%);fill-opacity:1;" d="M 7.460938 21.09375 C 7.546875 21.140625 7.628906 21.191406 7.710938 21.242188 C 7.800781 21.296875 7.800781 21.296875 7.890625 21.351562 C 8.332031 21.804688 8.414062 22.257812 8.410156 22.871094 C 8.421875 24.058594 8.6875 25.105469 9.550781 25.972656 C 9.632812 26.050781 9.71875 26.128906 9.804688 26.210938 C 9.867188 26.269531 9.929688 26.335938 9.992188 26.398438 C 10.039062 26.441406 10.082031 26.488281 10.128906 26.535156 C 10.398438 26.804688 10.410156 27.148438 10.414062 27.511719 C 10.402344 28.082031 10.265625 28.417969 9.875 28.835938 C 9.460938 29.195312 8.972656 29.261719 8.4375 29.246094 C 7.964844 29.175781 7.640625 28.921875 7.339844 28.566406 C 7.046875 28.101562 7.027344 27.707031 7.023438 27.164062 C 7.003906 25.996094 6.707031 25.050781 5.882812 24.183594 C 5.792969 24.105469 5.699219 24.027344 5.609375 23.953125 C 5.25 23.648438 5.066406 23.316406 5 22.847656 C 4.980469 22.335938 5.042969 21.917969 5.359375 21.503906 C 5.523438 21.347656 5.691406 21.222656 5.882812 21.109375 C 5.921875 21.085938 5.960938 21.0625 6 21.035156 C 6.421875 20.871094 7.046875 20.917969 7.460938 21.09375 Z M 7.460938 21.09375 "/>
<path style=" stroke:none;fill-rule:nonzero;fill:rgb(1.960784%,1.960784%,1.960784%);fill-opacity:1;" d="M 33.984375 21.058594 C 34.050781 21.097656 34.113281 21.136719 34.183594 21.175781 C 34.222656 21.199219 34.261719 21.222656 34.300781 21.246094 C 34.632812 21.457031 34.820312 21.703125 34.941406 22.078125 C 35.03125 22.566406 35.035156 23.105469 34.769531 23.53125 C 34.585938 23.757812 34.398438 23.980469 34.183594 24.183594 C 34.140625 24.183594 34.097656 24.183594 34.050781 24.183594 C 34.035156 24.222656 34.015625 24.261719 34 24.300781 C 33.925781 24.441406 33.851562 24.527344 33.742188 24.636719 C 33.054688 25.417969 32.988281 26.371094 32.976562 27.355469 C 32.960938 27.949219 32.867188 28.335938 32.460938 28.785156 C 32.03125 29.191406 31.566406 29.242188 30.996094 29.234375 C 30.496094 29.191406 30.222656 28.949219 29.90625 28.574219 C 29.5625 28.085938 29.546875 27.632812 29.609375 27.058594 C 29.730469 26.550781 30.074219 26.269531 30.457031 25.941406 C 30.734375 25.6875 30.933594 25.425781 31.121094 25.097656 C 31.140625 25.058594 31.164062 25.015625 31.1875 24.976562 C 31.570312 24.253906 31.597656 23.503906 31.589844 22.703125 C 31.601562 22.121094 31.746094 21.824219 32.113281 21.390625 C 32.636719 20.949219 33.320312 20.796875 33.984375 21.058594 Z M 33.984375 21.058594 "/>
<path style=" stroke:none;fill-rule:nonzero;fill:rgb(2.352941%,2.352941%,2.352941%);fill-opacity:1;" d="M 13.175781 29.683594 C 13.464844 29.839844 13.652344 30.050781 13.875 30.289062 C 14.5625 31.007812 15.378906 31.527344 16.394531 31.578125 C 16.457031 31.578125 16.523438 31.578125 16.585938 31.582031 C 16.691406 31.582031 16.691406 31.582031 16.800781 31.585938 C 16.945312 31.585938 17.089844 31.589844 17.234375 31.589844 C 17.792969 31.605469 18.21875 31.703125 18.613281 32.117188 C 18.652344 32.152344 18.6875 32.1875 18.722656 32.222656 C 19.085938 32.691406 19.066406 33.15625 19.019531 33.726562 C 18.945312 34.085938 18.699219 34.394531 18.429688 34.640625 C 18.386719 34.640625 18.34375 34.640625 18.300781 34.640625 C 18.300781 34.683594 18.300781 34.726562 18.300781 34.769531 C 17.859375 35.03125 17.363281 35.03125 16.863281 34.96875 C 16.449219 34.828125 16.179688 34.570312 15.886719 34.257812 C 15.207031 33.554688 14.421875 33.042969 13.410156 33 C 13.347656 32.996094 13.285156 32.996094 13.21875 32.996094 C 13.148438 32.996094 13.082031 32.996094 13.007812 32.992188 C 12.863281 32.992188 12.71875 32.988281 12.574219 32.988281 C 12.039062 32.976562 11.648438 32.871094 11.253906 32.503906 C 10.902344 32.136719 10.777344 31.75 10.75 31.25 C 10.765625 30.773438 10.914062 30.410156 11.238281 30.058594 C 11.777344 29.5625 12.46875 29.449219 13.175781 29.683594 Z M 13.175781 29.683594 "/>
<path style=" stroke:none;fill-rule:nonzero;fill:rgb(1.960784%,1.960784%,1.960784%);fill-opacity:1;" d="M 32.15625 10.980469 C 32.523438 11.246094 32.824219 11.507812 32.941406 11.960938 C 32.96875 12.226562 32.972656 12.492188 32.972656 12.757812 C 32.984375 13.988281 33.304688 14.9375 34.183594 15.816406 C 34.238281 15.867188 34.289062 15.917969 34.34375 15.972656 C 34.394531 16.023438 34.449219 16.070312 34.5 16.125 C 34.570312 16.1875 34.570312 16.1875 34.644531 16.253906 C 34.992188 16.667969 35.023438 17.132812 35.003906 17.648438 C 34.960938 18.117188 34.667969 18.40625 34.347656 18.722656 C 33.820312 19.050781 33.363281 19.089844 32.746094 19.019531 C 32.292969 18.867188 31.9375 18.453125 31.695312 18.054688 C 31.621094 17.875 31.617188 17.734375 31.613281 17.539062 C 31.613281 17.464844 31.609375 17.394531 31.609375 17.320312 C 31.605469 17.167969 31.605469 17.019531 31.601562 16.871094 C 31.585938 16.238281 31.507812 15.617188 31.195312 15.058594 C 31.046875 14.78125 31.046875 14.78125 31.046875 14.640625 C 31.003906 14.640625 30.960938 14.640625 30.914062 14.640625 C 30.855469 14.550781 30.796875 14.460938 30.742188 14.367188 C 30.519531 14.066406 30.226562 13.808594 29.945312 13.5625 C 29.585938 13.148438 29.570312 12.707031 29.585938 12.179688 C 29.632812 11.707031 29.859375 11.394531 30.203125 11.078125 C 30.734375 10.664062 31.582031 10.632812 32.15625 10.980469 Z M 32.15625 10.980469 "/>
<path style=" stroke:none;fill-rule:nonzero;fill:rgb(1.960784%,1.960784%,1.960784%);fill-opacity:1;" d="M 18.238281 5.207031 C 18.601562 5.453125 18.929688 5.765625 19.019531 6.210938 C 19.082031 6.796875 19.054688 7.292969 18.691406 7.777344 C 18.425781 8.0625 18.136719 8.34375 17.734375 8.382812 C 17.671875 8.382812 17.605469 8.386719 17.539062 8.386719 C 17.464844 8.386719 17.394531 8.390625 17.320312 8.390625 C 17.167969 8.394531 17.019531 8.394531 16.871094 8.398438 C 15.566406 8.429688 14.691406 8.90625 13.789062 9.804688 C 13.734375 9.863281 13.734375 9.863281 13.675781 9.925781 C 13.59375 10 13.59375 10 13.464844 10 C 13.433594 10.097656 13.433594 10.097656 13.398438 10.195312 C 12.914062 10.453125 12.332031 10.488281 11.800781 10.351562 C 11.371094 10.164062 11.09375 9.792969 10.855469 9.402344 C 10.703125 8.992188 10.707031 8.476562 10.839844 8.0625 C 11.078125 7.59375 11.464844 7.230469 11.960938 7.058594 C 12.136719 7.042969 12.136719 7.042969 12.324219 7.039062 C 12.390625 7.035156 12.460938 7.035156 12.53125 7.035156 C 12.675781 7.03125 12.816406 7.03125 12.960938 7.027344 C 14.210938 6.996094 15.113281 6.550781 15.972656 5.65625 C 16.585938 5.015625 17.402344 4.765625 18.238281 5.207031 Z M 18.238281 5.207031 "/>
<path style=" stroke:none;fill-rule:nonzero;fill:rgb(1.960784%,1.960784%,1.960784%);fill-opacity:1;" d="M 9.339844 10.839844 C 9.78125 11.039062 10.121094 11.351562 10.335938 11.785156 C 10.5 12.3125 10.445312 12.914062 10.195312 13.398438 C 10.054688 13.613281 9.886719 13.769531 9.691406 13.933594 C 8.980469 14.546875 8.5625 15.28125 8.429688 16.210938 C 8.410156 16.539062 8.410156 16.867188 8.410156 17.195312 C 8.398438 17.769531 8.238281 18.21875 7.855469 18.65625 C 7.453125 19.015625 7.007812 19.058594 6.484375 19.042969 C 6 18.988281 5.648438 18.78125 5.324219 18.425781 C 4.972656 17.964844 4.96875 17.421875 5.03125 16.863281 C 5.160156 16.425781 5.390625 16.152344 5.738281 15.871094 C 6.449219 15.277344 6.859375 14.507812 6.992188 13.59375 C 7.011719 13.25 7.015625 12.90625 7.011719 12.566406 C 7.023438 12.035156 7.128906 11.640625 7.503906 11.25 C 8.03125 10.765625 8.644531 10.636719 9.339844 10.839844 Z M 9.339844 10.839844 "/>
<path style=" stroke:none;fill-rule:nonzero;fill:rgb(1.960784%,1.960784%,1.960784%);fill-opacity:1;" d="M 28.628906 29.933594 C 28.78125 30.074219 28.902344 30.222656 29.019531 30.390625 C 29.058594 30.449219 29.101562 30.503906 29.140625 30.5625 C 29.296875 31.03125 29.289062 31.589844 29.085938 32.039062 C 28.863281 32.421875 28.546875 32.777344 28.117188 32.914062 C 27.945312 32.945312 27.78125 32.949219 27.605469 32.953125 C 26.488281 32.957031 26.488281 32.957031 25.425781 33.269531 C 25.375 33.289062 25.320312 33.3125 25.269531 33.335938 C 24.738281 33.605469 24.253906 34.003906 23.878906 34.464844 C 23.597656 34.800781 23.300781 34.941406 22.863281 34.988281 C 22.433594 35.003906 22.082031 34.972656 21.699219 34.769531 C 21.617188 34.636719 21.617188 34.636719 21.570312 34.511719 C 21.527344 34.492188 21.488281 34.472656 21.445312 34.453125 C 21.21875 34.332031 21.089844 34.113281 21.007812 33.871094 C 20.902344 33.296875 20.90625 32.746094 21.234375 32.25 C 21.269531 32.203125 21.269531 32.203125 21.308594 32.15625 C 21.351562 32.15625 21.394531 32.15625 21.4375 32.15625 C 21.4375 32.113281 21.4375 32.070312 21.4375 32.027344 C 21.539062 31.945312 21.539062 31.945312 21.675781 31.859375 C 21.71875 31.832031 21.761719 31.800781 21.808594 31.773438 C 22.175781 31.597656 22.59375 31.621094 22.988281 31.605469 C 24.167969 31.550781 25.214844 31.253906 26.050781 30.367188 C 26.132812 30.273438 26.210938 30.179688 26.285156 30.082031 C 26.847656 29.386719 27.949219 29.445312 28.628906 29.933594 Z M 28.628906 29.933594 "/>
<path style=" stroke:none;fill-rule:nonzero;fill:rgb(3.529412%,3.529412%,3.529412%);fill-opacity:1;" d="M 32.089844 18.824219 C 32.269531 18.890625 32.421875 18.957031 32.582031 19.058594 C 33.054688 19.246094 33.5625 19.210938 34.027344 19.023438 C 34.125 18.980469 34.21875 18.933594 34.3125 18.890625 C 34.378906 18.867188 34.441406 18.847656 34.511719 18.824219 C 34.5 18.859375 34.492188 18.898438 34.480469 18.933594 C 34.300781 19.710938 34.363281 20.464844 34.511719 21.242188 C 34.460938 21.214844 34.414062 21.183594 34.367188 21.15625 C 33.820312 20.851562 33.386719 20.75 32.769531 20.886719 C 32.511719 20.964844 32.292969 21.058594 32.089844 21.242188 C 32.152344 20.871094 32.152344 20.871094 32.191406 20.699219 C 32.300781 20.078125 32.21875 19.4375 32.089844 18.824219 Z M 32.089844 18.824219 "/>
<path style=" stroke:none;fill-rule:nonzero;fill:rgb(2.352941%,2.352941%,2.352941%);fill-opacity:1;" d="M 5.488281 18.824219 C 5.671875 18.894531 5.839844 18.96875 6.011719 19.058594 C 6.390625 19.222656 6.882812 19.222656 7.273438 19.105469 C 7.378906 19.058594 7.480469 19.007812 7.582031 18.953125 C 7.644531 18.953125 7.710938 18.953125 7.777344 18.953125 C 7.777344 18.910156 7.777344 18.867188 7.777344 18.824219 C 7.820312 18.824219 7.863281 18.824219 7.910156 18.824219 C 7.898438 18.871094 7.890625 18.917969 7.878906 18.96875 C 7.738281 19.734375 7.757812 20.414062 7.910156 21.175781 C 7.71875 21.101562 7.535156 21.023438 7.347656 20.941406 C 6.9375 20.789062 6.496094 20.765625 6.082031 20.921875 C 5.925781 21 5.773438 21.085938 5.621094 21.175781 C 5.554688 21.207031 5.554688 21.207031 5.488281 21.242188 C 5.5 21.199219 5.507812 21.160156 5.519531 21.117188 C 5.679688 20.339844 5.648438 19.597656 5.488281 18.824219 Z M 5.488281 18.824219 "/>
<path style=" stroke:none;fill-rule:nonzero;fill:rgb(3.529412%,3.529412%,3.529412%);fill-opacity:1;" d="M 10.523438 8.890625 C 10.566406 8.890625 10.609375 8.890625 10.652344 8.890625 C 10.667969 8.957031 10.667969 8.957031 10.683594 9.027344 C 10.800781 9.527344 10.953125 9.925781 11.382812 10.230469 C 11.671875 10.402344 11.960938 10.511719 12.289062 10.589844 C 12.15625 10.6875 12.027344 10.785156 11.894531 10.878906 C 11.375 11.265625 10.925781 11.695312 10.652344 12.289062 C 10.632812 12.289062 10.609375 12.289062 10.589844 12.289062 C 10.574219 12.234375 10.574219 12.234375 10.558594 12.179688 C 10.40625 11.660156 10.195312 11.203125 9.714844 10.917969 C 9.445312 10.785156 9.183594 10.710938 8.890625 10.652344 C 8.890625 10.609375 8.890625 10.566406 8.890625 10.523438 C 8.925781 10.503906 8.960938 10.484375 9 10.46875 C 9.714844 10.089844 10.160156 9.617188 10.523438 8.890625 Z M 10.523438 8.890625 "/>
<path style=" stroke:none;fill-rule:nonzero;fill:rgb(2.745098%,2.745098%,2.745098%);fill-opacity:1;" d="M 18.824219 32.089844 C 18.859375 32.101562 18.894531 32.109375 18.929688 32.121094 C 19.664062 32.292969 20.449219 32.289062 21.175781 32.089844 C 21.15625 32.128906 21.136719 32.167969 21.117188 32.207031 C 20.867188 32.722656 20.742188 33.226562 20.90625 33.789062 C 20.96875 33.964844 21.039062 34.140625 21.109375 34.3125 C 21.132812 34.378906 21.152344 34.441406 21.175781 34.511719 C 21.140625 34.5 21.105469 34.492188 21.070312 34.480469 C 20.335938 34.308594 19.550781 34.3125 18.824219 34.511719 C 18.894531 34.328125 18.964844 34.160156 19.058594 33.992188 C 19.234375 33.585938 19.230469 33.054688 19.09375 32.640625 C 19.019531 32.488281 19.019531 32.488281 18.890625 32.289062 C 18.867188 32.222656 18.847656 32.15625 18.824219 32.089844 Z M 18.824219 32.089844 "/>
<path style=" stroke:none;fill-rule:nonzero;fill:rgb(3.137255%,3.137255%,3.137255%);fill-opacity:1;" d="M 29.410156 8.953125 C 29.65625 9.257812 29.65625 9.257812 29.769531 9.414062 C 30.109375 9.878906 30.519531 10.28125 31.046875 10.523438 C 31.046875 10.566406 31.046875 10.609375 31.046875 10.652344 C 30.941406 10.6875 30.835938 10.71875 30.730469 10.75 C 30.671875 10.769531 30.613281 10.789062 30.554688 10.808594 C 30.390625 10.851562 30.390625 10.851562 30.195312 10.851562 C 30.164062 10.945312 30.164062 10.945312 30.128906 11.046875 C 30.058594 11.113281 30.058594 11.113281 29.984375 11.179688 C 29.738281 11.414062 29.617188 11.722656 29.476562 12.027344 C 29.433594 12.113281 29.390625 12.199219 29.347656 12.289062 C 29.320312 12.242188 29.292969 12.195312 29.265625 12.148438 C 28.851562 11.46875 28.414062 11.035156 27.710938 10.652344 C 27.890625 10.535156 28.03125 10.476562 28.226562 10.40625 C 28.511719 10.292969 28.691406 10.175781 28.890625 9.933594 C 28.933594 9.886719 28.976562 9.839844 29.023438 9.792969 C 29.203125 9.53125 29.304688 9.25 29.410156 8.953125 Z M 29.410156 8.953125 "/>
<path style=" stroke:none;fill-rule:nonzero;fill:rgb(3.137255%,3.137255%,3.137255%);fill-opacity:1;" d="M 10.589844 27.710938 C 10.742188 27.902344 10.890625 28.09375 11.035156 28.292969 C 11.390625 28.765625 11.753906 29.082031 12.289062 29.347656 C 11.769531 29.609375 11.769531 29.609375 11.503906 29.609375 C 11.503906 29.652344 11.503906 29.695312 11.503906 29.738281 C 11.371094 29.828125 11.242188 29.914062 11.109375 30 C 11.066406 30.066406 11.023438 30.128906 10.980469 30.195312 C 10.9375 30.195312 10.894531 30.195312 10.851562 30.195312 C 10.839844 30.238281 10.832031 30.28125 10.824219 30.328125 C 10.773438 30.570312 10.714844 30.804688 10.652344 31.046875 C 10.609375 31.046875 10.566406 31.046875 10.523438 31.046875 C 10.4375 30.914062 10.4375 30.914062 10.339844 30.738281 C 10.054688 30.253906 9.699219 29.980469 9.242188 29.65625 C 9.085938 29.542969 9.085938 29.542969 8.953125 29.410156 C 9.003906 29.394531 9.054688 29.375 9.109375 29.359375 C 9.683594 29.140625 10.097656 28.910156 10.367188 28.339844 C 10.445312 28.132812 10.519531 27.925781 10.589844 27.710938 Z M 10.589844 27.710938 "/>
<path style=" stroke:none;fill-rule:nonzero;fill:rgb(1.568628%,1.568628%,1.568628%);fill-opacity:1;" d="M 18.824219 5.488281 C 18.859375 5.5 18.894531 5.507812 18.929688 5.519531 C 19.664062 5.691406 20.449219 5.6875 21.175781 5.488281 C 21.15625 5.527344 21.136719 5.566406 21.117188 5.605469 C 20.851562 6.144531 20.730469 6.65625 20.90625 7.246094 C 20.96875 7.40625 21.039062 7.558594 21.109375 7.710938 C 21.132812 7.777344 21.152344 7.84375 21.175781 7.910156 C 21.140625 7.898438 21.105469 7.890625 21.070312 7.878906 C 20.335938 7.707031 19.550781 7.710938 18.824219 7.910156 C 18.847656 7.855469 18.871094 7.804688 18.894531 7.753906 C 19.132812 7.199219 19.300781 6.636719 19.09375 6.046875 C 19.019531 5.890625 19.019531 5.890625 18.890625 5.6875 C 18.867188 5.621094 18.847656 5.558594 18.824219 5.488281 Z M 18.824219 5.488281 "/>
<path style=" stroke:none;fill-rule:nonzero;fill:rgb(3.137255%,3.137255%,3.137255%);fill-opacity:1;" d="M 29.347656 27.710938 C 29.5 27.867188 29.53125 27.984375 29.601562 28.191406 C 29.808594 28.769531 30.117188 29 30.652344 29.28125 C 30.875 29.371094 30.875 29.371094 31.046875 29.410156 C 30.898438 29.53125 30.75 29.648438 30.597656 29.757812 C 30.105469 30.109375 29.753906 30.511719 29.476562 31.046875 C 29.332031 30.898438 29.296875 30.796875 29.226562 30.605469 C 29.023438 30.085938 28.761719 29.839844 28.265625 29.609375 C 28.082031 29.535156 27.902344 29.464844 27.710938 29.410156 C 27.859375 29.292969 28.003906 29.175781 28.160156 29.066406 C 28.667969 28.707031 29.0625 28.269531 29.347656 27.710938 Z M 29.347656 27.710938 "/>
<path style=" stroke:none;fill-rule:nonzero;fill:rgb(94.901961%,94.901961%,94.901961%);fill-opacity:1;" d="M 33.671875 21.910156 C 33.960938 22.089844 34.03125 22.203125 34.113281 22.535156 C 34.140625 22.855469 34.042969 23.015625 33.855469 23.269531 C 33.664062 23.429688 33.550781 23.460938 33.304688 23.492188 C 33.023438 23.457031 32.894531 23.386719 32.679688 23.203125 C 32.507812 22.9375 32.4375 22.734375 32.484375 22.417969 C 32.753906 21.90625 33.113281 21.691406 33.671875 21.910156 Z M 33.671875 21.910156 "/>
<path style=" stroke:none;fill-rule:nonzero;fill:rgb(94.901961%,94.901961%,94.901961%);fill-opacity:1;" d="M 23.007812 32.550781 C 23.238281 32.691406 23.363281 32.820312 23.464844 33.070312 C 23.480469 33.363281 23.433594 33.601562 23.285156 33.851562 C 23.089844 34.027344 22.953125 34.117188 22.683594 34.121094 C 22.371094 34.097656 22.179688 34.023438 21.960938 33.789062 C 21.828125 33.550781 21.796875 33.34375 21.828125 33.070312 C 22.109375 32.542969 22.4375 32.394531 23.007812 32.550781 Z M 23.007812 32.550781 "/>
<path style=" stroke:none;fill-rule:nonzero;fill:rgb(94.901961%,94.901961%,94.901961%);fill-opacity:1;" d="M 6.929688 21.828125 C 7.203125 21.96875 7.40625 22.125 7.515625 22.417969 C 7.539062 22.730469 7.496094 22.949219 7.300781 23.199219 C 7.035156 23.402344 6.949219 23.464844 6.605469 23.460938 C 6.324219 23.414062 6.191406 23.296875 6.011719 23.070312 C 5.867188 22.855469 5.859375 22.675781 5.882812 22.417969 C 5.949219 22.261719 5.949219 22.261719 6.011719 22.15625 C 6.054688 22.15625 6.097656 22.15625 6.144531 22.15625 C 6.164062 22.09375 6.1875 22.027344 6.210938 21.960938 C 6.4375 21.792969 6.65625 21.796875 6.929688 21.828125 Z M 6.929688 21.828125 "/>
<path style=" stroke:none;fill-rule:nonzero;fill:rgb(95.686275%,95.686275%,95.686275%);fill-opacity:1;" d="M 31.570312 11.699219 C 31.84375 11.808594 31.972656 11.949219 32.089844 12.222656 C 32.132812 12.515625 32.105469 12.6875 31.945312 12.929688 C 31.726562 13.199219 31.597656 13.257812 31.25 13.296875 C 30.933594 13.289062 30.800781 13.164062 30.589844 12.941406 C 30.421875 12.714844 30.429688 12.496094 30.457031 12.222656 C 30.738281 11.710938 31.015625 11.644531 31.570312 11.699219 Z M 31.570312 11.699219 "/>
<path style=" stroke:none;fill-rule:nonzero;fill:rgb(95.294118%,95.294118%,95.294118%);fill-opacity:1;" d="M 9.019531 11.699219 C 9.261719 11.816406 9.429688 11.964844 9.527344 12.21875 C 9.582031 12.53125 9.527344 12.742188 9.347656 13.007812 C 9.152344 13.21875 9.050781 13.265625 8.761719 13.300781 C 8.484375 13.285156 8.316406 13.1875 8.105469 13.007812 C 7.949219 12.816406 7.910156 12.699219 7.878906 12.453125 C 7.914062 12.179688 7.996094 12.042969 8.171875 11.828125 C 8.449219 11.644531 8.691406 11.644531 9.019531 11.699219 Z M 9.019531 11.699219 "/>
<path style=" stroke:none;fill-rule:nonzero;fill:rgb(95.294118%,95.294118%,95.294118%);fill-opacity:1;" d="M 27.851562 7.976562 C 28.21875 8.199219 28.21875 8.199219 28.300781 8.367188 C 28.328125 8.660156 28.335938 8.933594 28.226562 9.210938 C 28.023438 9.4375 27.816406 9.527344 27.515625 9.570312 C 27.210938 9.527344 27.027344 9.371094 26.804688 9.171875 C 26.6875 8.925781 26.683594 8.695312 26.730469 8.429688 C 26.84375 8.222656 26.992188 8.085938 27.183594 7.949219 C 27.429688 7.875 27.617188 7.859375 27.851562 7.976562 Z M 27.851562 7.976562 "/>
<path style=" stroke:none;fill-rule:nonzero;fill:rgb(95.294118%,95.294118%,95.294118%);fill-opacity:1;" d="M 23.007812 5.949219 C 23.21875 6.105469 23.347656 6.300781 23.464844 6.535156 C 23.5 6.800781 23.464844 6.957031 23.320312 7.171875 C 23.117188 7.433594 22.941406 7.5 22.617188 7.539062 C 22.296875 7.5 22.105469 7.351562 21.902344 7.105469 C 21.808594 6.875 21.800781 6.71875 21.828125 6.46875 C 22.109375 5.960938 22.445312 5.839844 23.007812 5.949219 Z M 23.007812 5.949219 "/>
<path style=" stroke:none;fill-rule:nonzero;fill:rgb(95.686275%,95.686275%,95.686275%);fill-opacity:1;" d="M 9.128906 26.804688 C 9.375 27.003906 9.523438 27.199219 9.574219 27.515625 C 9.527344 27.8125 9.382812 28.011719 9.160156 28.210938 C 8.910156 28.367188 8.648438 28.351562 8.367188 28.300781 C 8.144531 28.132812 8.015625 27.96875 7.910156 27.710938 C 7.886719 27.394531 7.929688 27.179688 8.128906 26.929688 C 8.4375 26.695312 8.769531 26.65625 9.128906 26.804688 Z M 9.128906 26.804688 "/>
<path style=" stroke:none;fill-rule:nonzero;fill:rgb(95.686275%,95.686275%,95.686275%);fill-opacity:1;" d="M 31.503906 26.730469 C 31.789062 26.878906 31.964844 27.023438 32.089844 27.320312 C 32.128906 27.582031 32.105469 27.6875 31.972656 27.921875 C 31.683594 28.292969 31.683594 28.292969 31.46875 28.332031 C 30.964844 28.335938 30.964844 28.335938 30.714844 28.152344 C 30.507812 27.859375 30.414062 27.6875 30.457031 27.320312 C 30.710938 26.859375 30.960938 26.636719 31.503906 26.730469 Z M 31.503906 26.730469 "/>
<path style=" stroke:none;fill-rule:nonzero;fill:rgb(96.078432%,96.078432%,96.078432%);fill-opacity:1;" d="M 12.679688 7.910156 C 12.964844 8.054688 13.144531 8.199219 13.269531 8.496094 C 13.320312 8.917969 13.320312 8.917969 13.207031 9.136719 C 13.039062 9.351562 12.878906 9.488281 12.613281 9.542969 C 12.308594 9.550781 12.140625 9.515625 11.898438 9.316406 C 11.683594 9.050781 11.671875 8.867188 11.675781 8.527344 C 11.699219 8.367188 11.699219 8.367188 11.851562 8.171875 C 12.152344 7.945312 12.296875 7.871094 12.679688 7.910156 Z M 12.679688 7.910156 "/>
<path style=" stroke:none;fill-rule:nonzero;fill:rgb(95.686275%,95.686275%,95.686275%);fill-opacity:1;" d="M 27.902344 30.527344 C 28.214844 30.742188 28.214844 30.742188 28.300781 30.914062 C 28.328125 31.1875 28.328125 31.429688 28.226562 31.6875 C 28.023438 31.925781 27.828125 32.070312 27.515625 32.125 C 27.203125 32.070312 27.007812 31.925781 26.804688 31.683594 C 26.707031 31.445312 26.679688 31.230469 26.730469 30.980469 C 26.847656 30.761719 27.003906 30.621094 27.21875 30.5 C 27.46875 30.4375 27.664062 30.394531 27.902344 30.527344 Z M 27.902344 30.527344 "/>
<path style=" stroke:none;fill-rule:nonzero;fill:rgb(95.294118%,95.294118%,95.294118%);fill-opacity:1;" d="M 33.59375 16.601562 C 33.808594 16.707031 33.9375 16.792969 34.078125 16.984375 C 34.15625 17.253906 34.140625 17.457031 34.042969 17.71875 C 33.894531 17.949219 33.773438 18.046875 33.53125 18.171875 C 33.285156 18.199219 33.125 18.191406 32.894531 18.101562 C 32.636719 17.882812 32.503906 17.648438 32.449219 17.316406 C 32.492188 17.070312 32.589844 16.925781 32.746094 16.730469 C 33.023438 16.546875 33.269531 16.558594 33.59375 16.601562 Z M 33.59375 16.601562 "/>
<path style=" stroke:none;fill-rule:nonzero;fill:rgb(95.686275%,95.686275%,95.686275%);fill-opacity:1;" d="M 18.039062 32.808594 C 18.195312 33.054688 18.179688 33.238281 18.140625 33.515625 C 18.089844 33.722656 17.996094 33.84375 17.84375 33.988281 C 17.558594 34.082031 17.289062 34.09375 16.992188 34.050781 C 16.777344 33.890625 16.621094 33.722656 16.535156 33.464844 C 16.5 33.203125 16.523438 33.09375 16.65625 32.859375 C 17.066406 32.339844 17.558594 32.4375 18.039062 32.808594 Z M 18.039062 32.808594 "/>
<path style=" stroke:none;fill-rule:nonzero;fill:rgb(97.647059%,97.647059%,97.647059%);fill-opacity:1;" d="M 12.679688 30.457031 C 12.925781 30.589844 13.136719 30.726562 13.269531 30.980469 C 13.304688 31.320312 13.253906 31.539062 13.070312 31.828125 C 12.875 32.011719 12.75 32.050781 12.484375 32.046875 C 12.429688 32.046875 12.375 32.046875 12.316406 32.046875 C 12.078125 32.015625 11.941406 31.945312 11.78125 31.765625 C 11.664062 31.480469 11.644531 31.21875 11.699219 30.914062 C 11.976562 30.554688 12.226562 30.410156 12.679688 30.457031 Z M 12.679688 30.457031 "/>
<path style=" stroke:none;fill-rule:nonzero;fill:rgb(95.686275%,95.686275%,95.686275%);fill-opacity:1;" d="M 6.929688 16.535156 C 7.164062 16.65625 7.339844 16.792969 7.484375 17.019531 C 7.539062 17.3125 7.492188 17.554688 7.375 17.828125 C 7.175781 18.070312 6.96875 18.15625 6.664062 18.195312 C 6.375 18.15625 6.214844 18.054688 6.023438 17.839844 C 5.910156 17.554688 5.894531 17.292969 5.949219 16.992188 C 6.210938 16.644531 6.488281 16.476562 6.929688 16.535156 Z M 6.929688 16.535156 "/>
<path style=" stroke:none;fill-rule:nonzero;fill:rgb(96.078432%,96.078432%,96.078432%);fill-opacity:1;" d="M 17.648438 5.949219 C 17.914062 6.082031 18.058594 6.191406 18.171875 6.46875 C 18.191406 6.785156 18.148438 7.003906 17.953125 7.25 C 17.667969 7.46875 17.492188 7.558594 17.125 7.515625 C 16.808594 7.355469 16.65625 7.199219 16.535156 6.863281 C 16.496094 6.597656 16.523438 6.492188 16.65625 6.257812 C 16.941406 5.898438 17.214844 5.894531 17.648438 5.949219 Z M 17.648438 5.949219 "/>
<path style=" stroke:none;fill-rule:nonzero;fill:rgb(92.156863%,92.156863%,92.156863%);fill-opacity:1;" d="M 5.425781 18.496094 C 5.53125 18.578125 5.636719 18.660156 5.742188 18.738281 C 6.171875 19 6.636719 19.003906 7.125 18.953125 C 7.441406 18.859375 7.722656 18.714844 7.972656 18.496094 C 7.972656 18.757812 7.972656 18.757812 7.910156 18.953125 C 7.910156 18.910156 7.910156 18.867188 7.910156 18.824219 C 7.867188 18.824219 7.820312 18.824219 7.777344 18.824219 C 7.777344 18.867188 7.777344 18.910156 7.777344 18.953125 C 7.253906 19.21875 6.710938 19.332031 6.128906 19.179688 C 5.90625 19.085938 5.695312 18.953125 5.488281 18.824219 C 5.511719 18.871094 5.535156 18.921875 5.558594 18.96875 C 5.625 19.160156 5.625 19.230469 5.554688 19.410156 C 5.511719 19.390625 5.46875 19.367188 5.425781 19.347656 C 5.402344 19.261719 5.378906 19.171875 5.359375 19.085938 C 5.332031 19.042969 5.304688 19 5.277344 18.957031 C 5.261719 18.914062 5.246094 18.871094 5.230469 18.824219 C 5.320312 18.644531 5.320312 18.644531 5.425781 18.496094 Z M 5.425781 18.496094 "/>
<path style=" stroke:none;fill-rule:nonzero;fill:rgb(81.568629%,81.568629%,81.568629%);fill-opacity:1;" d="M 12.289062 29.347656 C 12.308594 29.390625 12.332031 29.433594 12.351562 29.476562 C 12.488281 29.503906 12.488281 29.503906 12.648438 29.511719 C 12.808594 29.519531 12.808594 29.519531 12.941406 29.542969 C 12.972656 29.605469 12.972656 29.605469 13.007812 29.671875 C 12.9375 29.671875 12.867188 29.667969 12.796875 29.664062 C 11.996094 29.636719 11.996094 29.636719 11.328125 30.039062 C 10.925781 30.472656 10.816406 30.925781 10.785156 31.503906 C 10.761719 31.503906 10.742188 31.503906 10.71875 31.503906 C 10.699219 31.394531 10.675781 31.289062 10.652344 31.175781 C 10.609375 31.175781 10.566406 31.175781 10.523438 31.175781 C 10.523438 31.132812 10.523438 31.089844 10.523438 31.046875 C 10.566406 31.046875 10.609375 31.046875 10.652344 31.046875 C 10.660156 30.964844 10.667969 30.886719 10.679688 30.804688 C 10.742188 30.335938 10.890625 30.136719 11.25 29.828125 C 11.371094 29.738281 11.371094 29.738281 11.503906 29.738281 C 11.503906 29.695312 11.503906 29.652344 11.503906 29.609375 C 11.761719 29.523438 12.019531 29.433594 12.289062 29.347656 Z M 12.289062 29.347656 "/>
<path style=" stroke:none;fill-rule:nonzero;fill:rgb(83.137256%,83.137256%,83.137256%);fill-opacity:1;" d="M 21.046875 5.425781 C 21.109375 5.425781 21.175781 5.425781 21.242188 5.425781 C 21.242188 5.46875 21.242188 5.511719 21.242188 5.554688 C 21.285156 5.578125 21.328125 5.597656 21.371094 5.621094 C 21.332031 5.679688 21.289062 5.738281 21.246094 5.800781 C 20.984375 6.210938 21.003906 6.648438 21.046875 7.125 C 21.132812 7.417969 21.269531 7.65625 21.4375 7.910156 C 21.277344 7.941406 21.277344 7.941406 21.109375 7.972656 C 21.101562 7.9375 21.09375 7.898438 21.085938 7.863281 C 21.042969 7.703125 20.980469 7.566406 20.910156 7.417969 C 20.738281 6.984375 20.695312 6.546875 20.839844 6.097656 C 20.902344 5.957031 20.96875 5.820312 21.046875 5.6875 C 21.066406 5.644531 21.089844 5.601562 21.109375 5.554688 C 21.066406 5.535156 21.023438 5.511719 20.980469 5.488281 C 21.003906 5.46875 21.023438 5.445312 21.046875 5.425781 Z M 21.046875 5.425781 "/>
<path style=" stroke:none;fill-rule:nonzero;fill:rgb(85.490197%,85.490197%,85.490197%);fill-opacity:1;" d="M 10.71875 8.496094 C 10.742188 8.496094 10.761719 8.496094 10.785156 8.496094 C 10.789062 8.550781 10.792969 8.605469 10.800781 8.660156 C 10.871094 9.273438 11.027344 9.667969 11.476562 10.09375 C 11.816406 10.3125 12.105469 10.34375 12.503906 10.335938 C 12.578125 10.335938 12.578125 10.335938 12.652344 10.332031 C 12.769531 10.332031 12.886719 10.328125 13.007812 10.328125 C 12.984375 10.371094 12.964844 10.414062 12.941406 10.457031 C 12.769531 10.496094 12.59375 10.507812 12.417969 10.523438 C 12.417969 10.566406 12.417969 10.609375 12.417969 10.652344 C 11.820312 10.527344 11.300781 10.335938 10.917969 9.835938 C 10.632812 9.378906 10.648438 9.019531 10.71875 8.496094 Z M 10.71875 8.496094 "/>
<path style=" stroke:none;fill-rule:nonzero;fill:rgb(82.745099%,82.745099%,82.745099%);fill-opacity:1;" d="M 18.757812 5.425781 C 18.929688 5.511719 18.941406 5.578125 19.019531 5.75 C 19.054688 5.816406 19.089844 5.878906 19.125 5.945312 C 19.320312 6.410156 19.273438 6.960938 19.097656 7.425781 C 18.976562 7.707031 18.863281 7.863281 18.582031 7.984375 C 18.53125 8.003906 18.484375 8.019531 18.429688 8.039062 C 18.457031 8 18.484375 7.960938 18.511719 7.921875 C 18.546875 7.871094 18.582031 7.820312 18.621094 7.765625 C 18.671875 7.6875 18.671875 7.6875 18.726562 7.613281 C 19 7.160156 19.003906 6.726562 18.953125 6.210938 C 18.886719 6.007812 18.808594 5.867188 18.691406 5.6875 C 18.671875 5.644531 18.648438 5.601562 18.628906 5.554688 C 18.671875 5.554688 18.714844 5.554688 18.757812 5.554688 C 18.757812 5.511719 18.757812 5.46875 18.757812 5.425781 Z M 18.757812 5.425781 "/>
<path style=" stroke:none;fill-rule:nonzero;fill:rgb(90.196079%,90.196079%,90.196079%);fill-opacity:1;" d="M 34.574219 18.429688 C 34.574219 18.5625 34.574219 18.691406 34.574219 18.824219 C 34.460938 18.875 34.34375 18.929688 34.226562 18.984375 C 34.164062 19.011719 34.097656 19.042969 34.03125 19.074219 C 33.601562 19.261719 33.101562 19.308594 32.648438 19.164062 C 32.421875 19.054688 32.21875 18.917969 32.027344 18.757812 C 32.089844 18.714844 32.15625 18.671875 32.222656 18.628906 C 32.261719 18.65625 32.296875 18.6875 32.335938 18.71875 C 32.765625 19.027344 33.214844 18.988281 33.726562 18.953125 C 34.074219 18.878906 34.316406 18.664062 34.574219 18.429688 Z M 34.574219 18.429688 "/>
<path style=" stroke:none;fill-rule:nonzero;fill:rgb(79.607844%,79.607844%,79.607844%);fill-opacity:1;" d="M 9.671875 10.851562 C 9.742188 10.882812 9.808594 10.917969 9.878906 10.957031 C 10.300781 11.304688 10.511719 11.765625 10.652344 12.289062 C 10.589844 12.308594 10.523438 12.332031 10.457031 12.351562 C 10.457031 12.546875 10.457031 12.742188 10.457031 12.941406 C 10.394531 12.972656 10.394531 12.972656 10.328125 13.007812 C 10.332031 12.902344 10.332031 12.902344 10.335938 12.796875 C 10.363281 11.996094 10.363281 11.996094 9.960938 11.328125 C 9.507812 10.90625 9.035156 10.816406 8.429688 10.785156 C 8.429688 10.761719 8.429688 10.742188 8.429688 10.71875 C 8.898438 10.648438 9.25 10.625 9.671875 10.851562 Z M 9.671875 10.851562 "/>
<path style=" stroke:none;fill-rule:nonzero;fill:rgb(81.176472%,81.176472%,81.176472%);fill-opacity:1;" d="M 27.710938 29.410156 C 28.238281 29.496094 28.652344 29.660156 29.007812 30.070312 C 29.234375 30.394531 29.375 30.730469 29.476562 31.109375 C 29.414062 31.109375 29.347656 31.109375 29.28125 31.109375 C 29.28125 31.242188 29.28125 31.371094 29.28125 31.503906 C 29.257812 31.503906 29.238281 31.503906 29.214844 31.503906 C 29.214844 31.457031 29.214844 31.414062 29.210938 31.367188 C 29.1875 30.859375 29.078125 30.476562 28.730469 30.09375 C 28.285156 29.695312 27.828125 29.636719 27.253906 29.609375 C 27.253906 29.585938 27.253906 29.566406 27.253906 29.542969 C 27.480469 29.511719 27.480469 29.511719 27.710938 29.476562 C 27.710938 29.457031 27.710938 29.433594 27.710938 29.410156 Z M 27.710938 29.410156 "/>
<path style=" stroke:none;fill-rule:nonzero;fill:rgb(90.196079%,90.196079%,90.196079%);fill-opacity:1;" d="M 10.390625 27.191406 C 10.414062 27.191406 10.433594 27.191406 10.457031 27.191406 C 10.472656 27.320312 10.488281 27.449219 10.503906 27.578125 C 10.519531 27.726562 10.519531 27.726562 10.589844 27.910156 C 10.476562 28.4375 10.167969 28.835938 9.738281 29.148438 C 9.460938 29.285156 9.183594 29.386719 8.890625 29.476562 C 8.890625 29.433594 8.890625 29.390625 8.890625 29.347656 C 8.757812 29.324219 8.628906 29.304688 8.496094 29.28125 C 8.496094 29.257812 8.496094 29.238281 8.496094 29.214844 C 8.574219 29.207031 8.574219 29.207031 8.648438 29.195312 C 9.269531 29.109375 9.726562 28.988281 10.117188 28.480469 C 10.375 28.097656 10.363281 27.640625 10.390625 27.191406 Z M 10.390625 27.191406 "/>
<path style=" stroke:none;fill-rule:nonzero;fill:rgb(90.196079%,90.196079%,90.196079%);fill-opacity:1;" d="M 7.570312 20.980469 C 7.707031 21.042969 7.832031 21.082031 7.972656 21.109375 C 7.953125 21.21875 7.929688 21.328125 7.910156 21.4375 C 7.867188 21.414062 7.828125 21.390625 7.785156 21.367188 C 7.734375 21.339844 7.679688 21.308594 7.625 21.277344 C 7.574219 21.25 7.523438 21.21875 7.46875 21.1875 C 7.058594 20.972656 6.59375 21.003906 6.144531 21.046875 C 5.941406 21.128906 5.789062 21.230469 5.621094 21.371094 C 5.554688 21.40625 5.554688 21.40625 5.488281 21.4375 C 5.46875 21.375 5.445312 21.308594 5.425781 21.242188 C 5.503906 21.191406 5.585938 21.136719 5.664062 21.085938 C 5.734375 21.042969 5.734375 21.042969 5.800781 21 C 6.378906 20.664062 6.976562 20.707031 7.570312 20.980469 Z M 7.570312 20.980469 "/>
<path style=" stroke:none;fill-rule:nonzero;fill:rgb(82.745099%,82.745099%,82.745099%);fill-opacity:1;" d="M 29.214844 8.496094 C 29.238281 8.496094 29.257812 8.496094 29.28125 8.496094 C 29.28125 8.605469 29.28125 8.710938 29.28125 8.824219 C 29.347656 8.84375 29.410156 8.867188 29.476562 8.890625 C 29.238281 9.570312 29.058594 10.007812 28.433594 10.394531 C 28.140625 10.535156 27.882812 10.527344 27.5625 10.496094 C 27.492188 10.488281 27.421875 10.480469 27.351562 10.472656 C 27.296875 10.46875 27.242188 10.464844 27.191406 10.457031 C 27.191406 10.4375 27.191406 10.414062 27.191406 10.390625 C 27.246094 10.390625 27.300781 10.390625 27.355469 10.386719 C 27.945312 10.359375 28.367188 10.292969 28.777344 9.847656 C 29.105469 9.429688 29.183594 9.015625 29.214844 8.496094 Z M 29.214844 8.496094 "/>
<path style=" stroke:none;fill-rule:nonzero;fill:rgb(78.823531%,78.823531%,78.823531%);fill-opacity:1;" d="M 29.542969 27.191406 C 29.5625 27.191406 29.585938 27.191406 29.609375 27.191406 C 29.609375 27.242188 29.609375 27.296875 29.609375 27.355469 C 29.636719 27.96875 29.765625 28.34375 30.15625 28.816406 C 30.574219 29.15625 30.980469 29.1875 31.503906 29.214844 C 31.503906 29.238281 31.503906 29.257812 31.503906 29.28125 C 31.375 29.28125 31.246094 29.28125 31.109375 29.28125 C 31.089844 29.347656 31.066406 29.410156 31.046875 29.476562 C 30.359375 29.222656 29.851562 28.984375 29.53125 28.296875 C 29.429688 27.929688 29.488281 27.5625 29.542969 27.191406 Z M 29.542969 27.191406 "/>
<path style=" stroke:none;fill-rule:nonzero;fill:rgb(87.843138%,87.843138%,87.843138%);fill-opacity:1;" d="M 21.242188 31.960938 C 21.261719 31.960938 21.285156 31.960938 21.308594 31.960938 C 21.335938 32.195312 21.3125 32.277344 21.175781 32.476562 C 20.945312 32.847656 21.007812 33.308594 21.046875 33.726562 C 21.09375 33.90625 21.148438 34.019531 21.242188 34.183594 C 21.265625 34.234375 21.292969 34.289062 21.320312 34.34375 C 21.335938 34.375 21.355469 34.410156 21.371094 34.445312 C 21.277344 34.476562 21.277344 34.476562 21.175781 34.511719 C 21.121094 34.40625 21.070312 34.304688 21.015625 34.199219 C 20.988281 34.140625 20.957031 34.085938 20.925781 34.023438 C 20.695312 33.519531 20.738281 32.996094 20.925781 32.484375 C 21.011719 32.277344 21.082031 32.121094 21.242188 31.960938 Z M 21.242188 31.960938 "/>
<path style=" stroke:none;fill-rule:nonzero;fill:rgb(86.666667%,86.666667%,86.666667%);fill-opacity:1;" d="M 18.890625 32.289062 C 19.125 32.492188 19.203125 32.707031 19.242188 33.015625 C 19.257812 33.574219 19.1875 34.0625 18.824219 34.511719 C 18.613281 34.597656 18.613281 34.597656 18.429688 34.640625 C 18.457031 34.601562 18.484375 34.5625 18.511719 34.523438 C 18.546875 34.472656 18.582031 34.421875 18.621094 34.367188 C 18.671875 34.289062 18.671875 34.289062 18.726562 34.210938 C 18.929688 33.882812 18.972656 33.632812 18.964844 33.242188 C 18.964844 33.160156 18.964844 33.078125 18.964844 32.992188 C 18.953125 32.75 18.925781 32.523438 18.890625 32.289062 Z M 18.890625 32.289062 "/>
<path style=" stroke:none;fill-rule:nonzero;fill:rgb(85.490197%,85.490197%,85.490197%);fill-opacity:1;" d="M 31.046875 10.523438 C 31.089844 10.523438 31.132812 10.523438 31.175781 10.523438 C 31.175781 10.585938 31.175781 10.652344 31.175781 10.71875 C 31.328125 10.71875 31.476562 10.71875 31.632812 10.71875 C 31.632812 10.742188 31.632812 10.761719 31.632812 10.785156 C 31.585938 10.785156 31.535156 10.789062 31.484375 10.789062 C 30.875 10.824219 30.375 10.933594 29.949219 11.394531 C 29.820312 11.570312 29.746094 11.753906 29.671875 11.960938 C 29.628906 11.875 29.585938 11.789062 29.542969 11.699219 C 29.613281 11.59375 29.6875 11.488281 29.757812 11.386719 C 29.800781 11.328125 29.839844 11.269531 29.878906 11.207031 C 30.117188 10.882812 30.335938 10.761719 30.71875 10.652344 C 30.914062 10.640625 30.914062 10.640625 31.046875 10.652344 C 31.046875 10.609375 31.046875 10.566406 31.046875 10.523438 Z M 31.046875 10.523438 "/>
<path style=" stroke:none;fill-rule:nonzero;fill:rgb(84.313726%,84.313726%,84.313726%);fill-opacity:1;" d="M 33.351562 20.78125 C 33.421875 20.78125 33.492188 20.78125 33.5625 20.78125 C 33.617188 20.78125 33.671875 20.785156 33.726562 20.785156 C 33.660156 20.882812 33.660156 20.882812 33.59375 20.980469 C 33.429688 21.003906 33.429688 21.003906 33.226562 21.007812 C 32.847656 21.03125 32.617188 21.117188 32.289062 21.308594 C 32.246094 21.308594 32.203125 21.308594 32.15625 21.308594 C 32.113281 21.394531 32.070312 21.480469 32.027344 21.570312 C 32.003906 21.570312 31.984375 21.570312 31.960938 21.570312 C 31.941406 21.417969 31.941406 21.417969 31.960938 21.242188 C 32.101562 21.136719 32.101562 21.136719 32.289062 21.046875 C 32.355469 21.011719 32.417969 20.976562 32.488281 20.941406 C 32.785156 20.800781 33.019531 20.777344 33.351562 20.78125 Z M 33.351562 20.78125 "/>
<path style=" stroke:none;fill-rule:nonzero;fill:rgb(85.882354%,85.882354%,85.882354%);fill-opacity:1;" d="M 28.824219 30.066406 C 29.039062 30.152344 29.125 30.230469 29.222656 30.441406 C 29.257812 30.511719 29.257812 30.511719 29.289062 30.582031 C 29.363281 30.753906 29.421875 30.929688 29.476562 31.109375 C 29.414062 31.109375 29.347656 31.109375 29.28125 31.109375 C 29.28125 31.242188 29.28125 31.371094 29.28125 31.503906 C 29.257812 31.503906 29.238281 31.503906 29.214844 31.503906 C 29.214844 31.457031 29.214844 31.414062 29.210938 31.367188 C 29.191406 30.949219 29.117188 30.664062 28.894531 30.3125 C 28.824219 30.195312 28.824219 30.195312 28.824219 30.066406 Z M 28.824219 30.066406 "/>
<path style=" stroke:none;fill-rule:nonzero;fill:rgb(81.176472%,81.176472%,81.176472%);fill-opacity:1;" d="M 10.066406 11.109375 C 10.085938 11.152344 10.109375 11.199219 10.128906 11.242188 C 10.066406 11.261719 10 11.285156 9.933594 11.308594 C 9.824219 11.222656 9.714844 11.132812 9.609375 11.046875 C 9.222656 10.839844 8.863281 10.808594 8.429688 10.785156 C 8.429688 10.761719 8.429688 10.742188 8.429688 10.71875 C 9.101562 10.617188 9.527344 10.703125 10.066406 11.109375 Z M 10.066406 11.109375 "/>
<path style=" stroke:none;fill-rule:nonzero;fill:rgb(78.823531%,78.823531%,78.823531%);fill-opacity:1;" d="M 7.777344 21.109375 C 7.84375 21.109375 7.90625 21.109375 7.972656 21.109375 C 7.953125 21.21875 7.929688 21.328125 7.910156 21.4375 C 7.867188 21.414062 7.828125 21.390625 7.785156 21.367188 C 7.734375 21.339844 7.679688 21.308594 7.625 21.277344 C 7.574219 21.25 7.523438 21.21875 7.46875 21.1875 C 7.226562 21.0625 7.019531 21.03125 6.753906 21.007812 C 6.6875 21.003906 6.621094 20.996094 6.554688 20.992188 C 6.480469 20.988281 6.480469 20.988281 6.40625 20.980469 C 6.40625 20.957031 6.40625 20.9375 6.40625 20.914062 C 6.519531 20.902344 6.632812 20.890625 6.746094 20.878906 C 6.808594 20.871094 6.871094 20.863281 6.933594 20.859375 C 7.285156 20.84375 7.484375 20.933594 7.777344 21.109375 Z M 7.777344 21.109375 "/>
<path style=" stroke:none;fill-rule:nonzero;fill:rgb(78.823531%,78.823531%,78.823531%);fill-opacity:1;" d="M 20.914062 6.40625 C 20.9375 6.40625 20.957031 6.40625 20.980469 6.40625 C 20.980469 6.449219 20.984375 6.496094 20.984375 6.542969 C 21.015625 7.070312 21.144531 7.46875 21.4375 7.910156 C 21.328125 7.929688 21.222656 7.953125 21.109375 7.972656 C 21.105469 7.9375 21.097656 7.902344 21.089844 7.867188 C 21.050781 7.703125 21.050781 7.703125 20.945312 7.535156 C 20.832031 7.277344 20.839844 7.117188 20.871094 6.839844 C 20.878906 6.757812 20.886719 6.675781 20.894531 6.589844 C 20.902344 6.53125 20.90625 6.46875 20.914062 6.40625 Z M 20.914062 6.40625 "/>
<path style=" stroke:none;fill-rule:nonzero;fill:rgb(12.156863%,12.156863%,12.156863%);fill-opacity:1;" d="M 7.710938 20.390625 C 7.734375 20.390625 7.753906 20.390625 7.777344 20.390625 C 7.820312 20.652344 7.863281 20.910156 7.910156 21.175781 C 7.703125 21.09375 7.515625 21.015625 7.320312 20.914062 C 7.320312 20.851562 7.320312 20.785156 7.320312 20.71875 C 7.429688 20.699219 7.535156 20.675781 7.648438 20.652344 C 7.667969 20.566406 7.691406 20.480469 7.710938 20.390625 Z M 7.710938 20.390625 "/>
<path style=" stroke:none;fill-rule:nonzero;fill:rgb(94.901961%,94.901961%,94.901961%);fill-opacity:1;" d="M 28.691406 6.992188 C 28.734375 7.144531 28.777344 7.296875 28.824219 7.449219 C 28.867188 7.449219 28.910156 7.449219 28.953125 7.449219 C 28.933594 7.515625 28.910156 7.582031 28.890625 7.648438 C 28.792969 7.589844 28.695312 7.527344 28.597656 7.46875 C 28.546875 7.433594 28.492188 7.402344 28.4375 7.367188 C 28.285156 7.242188 28.257812 7.183594 28.234375 6.992188 C 28.410156 6.90625 28.507812 6.949219 28.691406 6.992188 Z M 28.691406 6.992188 "/>
<path style=" stroke:none;fill-rule:nonzero;fill:rgb(87.843138%,87.843138%,87.843138%);fill-opacity:1;" d="M 12.679688 30.457031 C 12.839844 30.554688 12.839844 30.554688 12.941406 30.652344 C 12.832031 30.675781 12.726562 30.695312 12.613281 30.71875 C 12.613281 30.652344 12.613281 30.589844 12.613281 30.523438 C 12.578125 30.566406 12.542969 30.609375 12.503906 30.652344 C 12.320312 30.8125 12.261719 30.785156 12.027344 30.785156 C 11.84375 30.910156 11.84375 30.910156 11.699219 31.046875 C 11.761719 30.820312 11.824219 30.722656 12.003906 30.566406 C 12.257812 30.441406 12.402344 30.421875 12.679688 30.457031 Z M 12.679688 30.457031 "/>
<path style=" stroke:none;fill-rule:nonzero;fill:rgb(10.196079%,10.196079%,10.196079%);fill-opacity:1;" d="M 28.367188 29.019531 C 28.363281 29.070312 28.359375 29.121094 28.359375 29.175781 C 28.347656 29.355469 28.347656 29.355469 28.496094 29.476562 C 28.453125 29.476562 28.410156 29.476562 28.367188 29.476562 C 28.34375 29.519531 28.324219 29.5625 28.300781 29.609375 C 28.105469 29.542969 27.914062 29.476562 27.710938 29.410156 C 28.195312 29.019531 28.195312 29.019531 28.367188 29.019531 Z M 28.367188 29.019531 "/>
<path style=" stroke:none;fill-rule:nonzero;fill:rgb(88.235295%,88.235295%,88.235295%);fill-opacity:1;" d="M 30.066406 28.890625 C 30.238281 28.921875 30.367188 28.972656 30.527344 29.050781 C 30.839844 29.191406 31.167969 29.199219 31.503906 29.214844 C 31.503906 29.238281 31.503906 29.257812 31.503906 29.28125 C 31.375 29.28125 31.246094 29.28125 31.109375 29.28125 C 31.089844 29.347656 31.066406 29.410156 31.046875 29.476562 C 30.917969 29.429688 30.792969 29.378906 30.664062 29.328125 C 30.59375 29.304688 30.523438 29.277344 30.453125 29.246094 C 30.257812 29.148438 30.175781 29.074219 30.066406 28.890625 Z M 30.066406 28.890625 "/>
<path style=" stroke:none;fill-rule:nonzero;fill:rgb(76.862746%,76.862746%,76.862746%);fill-opacity:1;" d="M 32.15625 18.628906 C 32.191406 18.648438 32.222656 18.671875 32.257812 18.695312 C 32.675781 18.957031 33.039062 19.011719 33.53125 19.019531 C 33.53125 19.042969 33.53125 19.0625 33.53125 19.085938 C 33.425781 19.097656 33.425781 19.097656 33.316406 19.113281 C 33.089844 19.140625 33.089844 19.140625 32.941406 19.191406 C 32.773438 19.222656 32.699219 19.183594 32.550781 19.101562 C 32.503906 19.078125 32.457031 19.054688 32.414062 19.027344 C 32.273438 18.945312 32.148438 18.859375 32.027344 18.757812 C 32.070312 18.714844 32.113281 18.671875 32.15625 18.628906 Z M 32.15625 18.628906 "/>
<path style=" stroke:none;fill-rule:nonzero;fill:rgb(74.509805%,74.509805%,74.509805%);fill-opacity:1;" d="M 18.890625 32.289062 C 19.070312 32.445312 19.144531 32.582031 19.214844 32.808594 C 19.226562 33.042969 19.226562 33.042969 19.222656 33.289062 C 19.222656 33.371094 19.222656 33.453125 19.21875 33.535156 C 19.21875 33.597656 19.21875 33.660156 19.214844 33.726562 C 19.152344 33.683594 19.085938 33.640625 19.019531 33.59375 C 18.988281 33.414062 18.988281 33.414062 18.980469 33.191406 C 18.960938 32.886719 18.9375 32.589844 18.890625 32.289062 Z M 18.890625 32.289062 "/>
<path style=" stroke:none;fill-rule:nonzero;fill:rgb(81.176472%,81.176472%,81.176472%);fill-opacity:1;" d="M 29.214844 8.496094 C 29.238281 8.496094 29.257812 8.496094 29.28125 8.496094 C 29.28125 8.605469 29.28125 8.710938 29.28125 8.824219 C 29.347656 8.84375 29.410156 8.867188 29.476562 8.890625 C 29.371094 9.167969 29.261719 9.449219 29.148438 9.738281 C 29.085938 9.695312 29.019531 9.652344 28.953125 9.609375 C 28.984375 9.546875 29.015625 9.484375 29.046875 9.421875 C 29.179688 9.121094 29.195312 8.820312 29.214844 8.496094 Z M 29.214844 8.496094 "/>
<path style=" stroke:none;fill-rule:nonzero;fill:rgb(87.450981%,87.450981%,87.450981%);fill-opacity:1;" d="M 30.390625 10.980469 C 30.355469 11.011719 30.320312 11.046875 30.285156 11.078125 C 29.992188 11.355469 29.800781 11.578125 29.671875 11.960938 C 29.628906 11.875 29.585938 11.789062 29.542969 11.699219 C 29.613281 11.59375 29.683594 11.488281 29.753906 11.378906 C 29.792969 11.320312 29.832031 11.261719 29.875 11.203125 C 30.027344 11.011719 30.152344 10.859375 30.390625 10.980469 Z M 30.390625 10.980469 "/>
<path style=" stroke:none;fill-rule:nonzero;fill:rgb(84.705883%,84.705883%,84.705883%);fill-opacity:1;" d="M 21.308594 31.960938 C 21.339844 32.238281 21.257812 32.390625 21.113281 32.625 C 21.011719 32.808594 20.964844 32.996094 20.914062 33.203125 C 20.894531 33.203125 20.871094 33.203125 20.851562 33.203125 C 20.832031 32.828125 20.855469 32.621094 21.046875 32.289062 C 21.058594 32.238281 21.070312 32.1875 21.082031 32.136719 C 21.097656 32.082031 21.097656 32.082031 21.109375 32.027344 C 21.242188 31.960938 21.242188 31.960938 21.308594 31.960938 Z M 21.308594 31.960938 "/>
<path style=" stroke:none;fill-rule:nonzero;fill:rgb(9.019608%,9.019608%,9.019608%);fill-opacity:1;" d="M 10.128906 9.542969 C 10.175781 9.5625 10.21875 9.585938 10.261719 9.609375 C 10.238281 9.714844 10.21875 9.824219 10.195312 9.933594 C 10.109375 9.933594 10.023438 9.933594 9.933594 9.933594 C 9.914062 10.042969 9.890625 10.148438 9.871094 10.261719 C 9.78125 10.261719 9.695312 10.261719 9.609375 10.261719 C 9.609375 10.195312 9.609375 10.132812 9.609375 10.066406 C 9.703125 9.980469 9.800781 9.898438 9.902344 9.824219 C 10.019531 9.730469 10.019531 9.730469 10.128906 9.542969 Z M 10.128906 9.542969 "/>
<path style=" stroke:none;fill-rule:nonzero;fill:rgb(12.941177%,12.941177%,12.941177%);fill-opacity:1;" d="M 18.824219 5.488281 C 19.148438 5.554688 19.148438 5.554688 19.476562 5.621094 C 19.414062 5.71875 19.414062 5.71875 19.347656 5.816406 C 19.347656 5.859375 19.347656 5.902344 19.347656 5.949219 C 19.21875 6.011719 19.21875 6.011719 19.085938 6.078125 C 18.984375 5.882812 18.894531 5.699219 18.824219 5.488281 Z M 18.824219 5.488281 "/>
<path style=" stroke:none;fill-rule:nonzero;fill:rgb(10.196079%,10.196079%,10.196079%);fill-opacity:1;" d="M 19.148438 33.726562 C 19.171875 33.726562 19.195312 33.726562 19.214844 33.726562 C 19.195312 33.875 19.171875 34.027344 19.148438 34.183594 C 19.214844 34.203125 19.28125 34.226562 19.347656 34.25 C 19.390625 34.292969 19.433594 34.335938 19.476562 34.378906 C 19.261719 34.421875 19.046875 34.464844 18.824219 34.511719 C 18.925781 34.246094 19.039062 33.984375 19.148438 33.726562 Z M 19.148438 33.726562 "/>
<path style=" stroke:none;fill-rule:nonzero;fill:rgb(79.215688%,79.215688%,79.215688%);fill-opacity:1;" d="M 7.910156 18.496094 C 7.96875 18.695312 7.976562 18.75 7.910156 18.953125 C 7.910156 18.910156 7.910156 18.867188 7.910156 18.824219 C 7.867188 18.824219 7.820312 18.824219 7.777344 18.824219 C 7.777344 18.867188 7.777344 18.910156 7.777344 18.953125 C 7.488281 19.050781 7.488281 19.050781 7.191406 19.148438 C 7.167969 19.085938 7.144531 19.019531 7.125 18.953125 C 7.164062 18.9375 7.203125 18.921875 7.246094 18.902344 C 7.296875 18.882812 7.351562 18.859375 7.40625 18.835938 C 7.457031 18.8125 7.511719 18.792969 7.566406 18.769531 C 7.710938 18.695312 7.800781 18.617188 7.910156 18.496094 Z M 7.910156 18.496094 "/>
<path style=" stroke:none;fill-rule:nonzero;fill:rgb(78.431374%,78.431374%,78.431374%);fill-opacity:1;" d="M 11.765625 10.328125 C 12.175781 10.328125 12.585938 10.328125 13.007812 10.328125 C 12.984375 10.371094 12.964844 10.414062 12.941406 10.457031 C 12.769531 10.496094 12.59375 10.507812 12.417969 10.523438 C 12.417969 10.566406 12.417969 10.609375 12.417969 10.652344 C 12.179688 10.589844 11.945312 10.523438 11.699219 10.457031 C 11.722656 10.414062 11.742188 10.371094 11.765625 10.328125 Z M 11.765625 10.328125 "/>
<path style=" stroke:none;fill-rule:nonzero;fill:rgb(77.64706%,77.64706%,77.64706%);fill-opacity:1;" d="M 18.953125 7.125 C 19.019531 7.144531 19.082031 7.167969 19.148438 7.191406 C 19.070312 7.453125 18.992188 7.691406 18.824219 7.910156 C 18.613281 7.996094 18.613281 7.996094 18.429688 8.039062 C 18.457031 8 18.484375 7.960938 18.511719 7.921875 C 18.566406 7.84375 18.566406 7.84375 18.621094 7.765625 C 18.652344 7.714844 18.6875 7.664062 18.726562 7.613281 C 18.820312 7.453125 18.890625 7.296875 18.953125 7.125 Z M 18.953125 7.125 "/>
<path style=" stroke:none;fill-rule:nonzero;fill:rgb(78.039217%,78.039217%,78.039217%);fill-opacity:1;" d="M 9.476562 29.019531 C 9.519531 29.085938 9.5625 29.148438 9.609375 29.214844 C 9.253906 29.34375 9.253906 29.34375 8.890625 29.476562 C 8.890625 29.433594 8.890625 29.390625 8.890625 29.347656 C 8.695312 29.3125 8.695312 29.3125 8.496094 29.28125 C 8.496094 29.257812 8.496094 29.238281 8.496094 29.214844 C 8.578125 29.203125 8.578125 29.203125 8.660156 29.1875 C 8.734375 29.179688 8.804688 29.167969 8.875 29.15625 C 8.945312 29.144531 9.019531 29.132812 9.089844 29.121094 C 9.285156 29.089844 9.285156 29.089844 9.476562 29.019531 Z M 9.476562 29.019531 "/>
<path style=" stroke:none;fill-rule:nonzero;fill:rgb(84.705883%,84.705883%,84.705883%);fill-opacity:1;" d="M 10.785156 30.457031 C 10.828125 30.457031 10.871094 30.457031 10.914062 30.457031 C 10.871094 30.800781 10.828125 31.148438 10.785156 31.503906 C 10.761719 31.503906 10.742188 31.503906 10.71875 31.503906 C 10.699219 31.394531 10.675781 31.289062 10.652344 31.175781 C 10.609375 31.175781 10.566406 31.175781 10.523438 31.175781 C 10.523438 31.132812 10.523438 31.089844 10.523438 31.046875 C 10.566406 31.046875 10.609375 31.046875 10.652344 31.046875 C 10.667969 30.917969 10.667969 30.917969 10.683594 30.789062 C 10.710938 30.53125 10.710938 30.53125 10.785156 30.457031 Z M 10.785156 30.457031 "/>
<path style=" stroke:none;fill-rule:nonzero;fill:rgb(73.725492%,73.725492%,73.725492%);fill-opacity:1;" d="M 12.289062 29.347656 C 12.308594 29.390625 12.332031 29.433594 12.351562 29.476562 C 12.488281 29.503906 12.488281 29.503906 12.648438 29.511719 C 12.808594 29.519531 12.808594 29.519531 12.941406 29.542969 C 12.960938 29.585938 12.984375 29.628906 13.007812 29.671875 C 12.597656 29.671875 12.1875 29.671875 11.765625 29.671875 C 11.785156 29.609375 11.808594 29.542969 11.828125 29.476562 C 12.0625 29.398438 12.0625 29.398438 12.289062 29.347656 Z M 12.289062 29.347656 "/>
<path style=" stroke:none;fill-rule:nonzero;fill:rgb(12.54902%,12.54902%,12.54902%);fill-opacity:1;" d="M 21.046875 7.582031 C 21.128906 7.75 21.128906 7.75 21.175781 7.910156 C 20.960938 7.867188 20.746094 7.820312 20.523438 7.777344 C 20.542969 7.714844 20.566406 7.648438 20.589844 7.582031 C 20.792969 7.515625 20.855469 7.496094 21.046875 7.582031 Z M 21.046875 7.582031 "/>
<path style=" stroke:none;fill-rule:nonzero;fill:rgb(8.235294%,8.235294%,8.235294%);fill-opacity:1;" d="M 9.410156 10.914062 C 9.789062 11.085938 9.789062 11.085938 9.933594 11.308594 C 9.734375 11.371094 9.609375 11.371094 9.410156 11.308594 C 9.410156 11.179688 9.410156 11.046875 9.410156 10.914062 Z M 9.410156 10.914062 "/>
<path style=" stroke:none;fill-rule:nonzero;fill:rgb(84.313726%,84.313726%,84.313726%);fill-opacity:1;" d="M 10 13.53125 C 10.042969 13.53125 10.085938 13.53125 10.128906 13.53125 C 10.023438 13.761719 9.910156 13.886719 9.710938 14.046875 C 9.578125 14.152344 9.460938 14.257812 9.347656 14.378906 C 9.304688 14.359375 9.261719 14.335938 9.214844 14.3125 C 9.3125 14.214844 9.40625 14.117188 9.5 14.019531 C 9.582031 13.9375 9.582031 13.9375 9.664062 13.855469 C 9.804688 13.726562 9.804688 13.726562 9.933594 13.726562 C 9.957031 13.660156 9.976562 13.597656 10 13.53125 Z M 10 13.53125 "/>
<path style=" stroke:none;fill-rule:nonzero;fill:rgb(12.54902%,12.54902%,12.54902%);fill-opacity:1;" d="M 18.105469 6.863281 C 18.125 6.90625 18.148438 6.949219 18.171875 6.992188 C 18.214844 6.992188 18.257812 6.992188 18.300781 6.992188 C 18.277344 7.035156 18.257812 7.078125 18.234375 7.125 C 18.214844 7.1875 18.191406 7.253906 18.171875 7.320312 C 18.019531 7.410156 17.878906 7.460938 17.710938 7.515625 C 17.691406 7.558594 17.667969 7.601562 17.648438 7.648438 C 17.648438 7.605469 17.648438 7.5625 17.648438 7.515625 C 17.605469 7.496094 17.5625 7.472656 17.515625 7.449219 C 17.589844 7.414062 17.660156 7.378906 17.738281 7.339844 C 17.917969 7.238281 17.96875 7.203125 18.066406 7.011719 C 18.078125 6.960938 18.09375 6.914062 18.105469 6.863281 Z M 18.105469 6.863281 "/>
<path style=" stroke:none;fill-rule:nonzero;fill:rgb(10.196079%,10.196079%,10.196079%);fill-opacity:1;" d="M 10.589844 27.710938 C 10.851562 28.023438 10.851562 28.023438 10.851562 28.171875 C 10.8125 28.1875 10.773438 28.207031 10.730469 28.226562 C 10.574219 28.304688 10.574219 28.304688 10.390625 28.429688 C 10.457031 28.195312 10.523438 27.957031 10.589844 27.710938 Z M 10.589844 27.710938 "/>
<path style=" stroke:none;fill-rule:nonzero;fill:rgb(77.64706%,77.64706%,77.64706%);fill-opacity:1;" d="M 32.941406 20.785156 C 33.199219 20.785156 33.457031 20.785156 33.726562 20.785156 C 33.660156 20.882812 33.660156 20.882812 33.59375 20.980469 C 33.472656 21 33.472656 21 33.332031 20.996094 C 33.289062 20.996094 33.242188 20.996094 33.195312 20.992188 C 33.070312 20.980469 33.070312 20.980469 32.941406 20.914062 C 32.941406 20.871094 32.941406 20.828125 32.941406 20.785156 Z M 32.941406 20.785156 "/>
<path style=" stroke:none;fill-rule:nonzero;fill:rgb(88.627452%,88.627452%,88.627452%);fill-opacity:1;" d="M 33.53125 20.851562 C 34.089844 20.90625 34.089844 20.90625 34.3125 21.046875 C 34.292969 21.109375 34.269531 21.175781 34.25 21.242188 C 34.140625 21.203125 34.03125 21.160156 33.925781 21.121094 C 33.867188 21.097656 33.804688 21.074219 33.742188 21.050781 C 33.59375 20.980469 33.59375 20.980469 33.53125 20.851562 Z M 33.53125 20.851562 "/>
<path style=" stroke:none;fill-rule:nonzero;fill:rgb(89.019608%,89.019608%,89.019608%);fill-opacity:1;" d="M 20.914062 6.210938 C 20.988281 6.425781 20.976562 6.550781 20.953125 6.777344 C 20.941406 6.875 20.941406 6.875 20.929688 6.972656 C 20.921875 7.046875 20.921875 7.046875 20.914062 7.125 C 20.871094 7.101562 20.828125 7.082031 20.785156 7.058594 C 20.785156 6.800781 20.785156 6.542969 20.785156 6.273438 C 20.828125 6.253906 20.871094 6.230469 20.914062 6.210938 Z M 20.914062 6.210938 "/>
<path style=" stroke:none;fill-rule:nonzero;fill:rgb(11.764706%,11.764706%,11.764706%);fill-opacity:1;" d="M 30.390625 26.011719 C 30.390625 26.277344 30.285156 26.394531 30.128906 26.601562 C 30.066406 26.632812 30.066406 26.632812 30 26.667969 C 29.976562 26.582031 29.957031 26.492188 29.933594 26.40625 C 30.085938 26.277344 30.238281 26.144531 30.390625 26.011719 Z M 30.390625 26.011719 "/>
<path style=" stroke:none;fill-rule:nonzero;fill:rgb(18.431373%,18.431373%,18.431373%);fill-opacity:1;" d="M 5.621094 20.523438 C 5.640625 20.609375 5.664062 20.695312 5.6875 20.785156 C 5.75 20.804688 5.816406 20.828125 5.882812 20.851562 C 5.800781 21.09375 5.710938 21.125 5.488281 21.242188 C 5.535156 21.003906 5.578125 20.765625 5.621094 20.523438 Z M 5.621094 20.523438 "/>
<path style=" stroke:none;fill-rule:nonzero;fill:rgb(90.588236%,90.588236%,90.588236%);fill-opacity:1;" d="M 7.253906 19.019531 C 7.191406 19.117188 7.191406 19.117188 7.125 19.214844 C 6.988281 19.238281 6.988281 19.238281 6.835938 19.234375 C 6.78125 19.234375 6.730469 19.234375 6.679688 19.234375 C 6.535156 19.214844 6.535156 19.214844 6.339844 19.085938 C 6.953125 19.011719 6.953125 19.011719 7.253906 19.019531 Z M 7.253906 19.019531 "/>
<path style=" stroke:none;fill-rule:nonzero;fill:rgb(71.372551%,71.372551%,71.372551%);fill-opacity:1;" d="M 6.011719 18.890625 C 6.316406 18.933594 6.617188 18.976562 6.929688 19.019531 C 6.929688 19.042969 6.929688 19.0625 6.929688 19.085938 C 6.867188 19.09375 6.808594 19.105469 6.75 19.113281 C 6.546875 19.144531 6.546875 19.144531 6.398438 19.195312 C 6.234375 19.222656 6.152344 19.167969 6.011719 19.085938 C 6.011719 19.019531 6.011719 18.957031 6.011719 18.890625 Z M 6.011719 18.890625 "/>
<path style=" stroke:none;fill-rule:nonzero;fill:rgb(72.941178%,72.941178%,72.941178%);fill-opacity:1;" d="M 27.710938 29.410156 C 28.003906 29.476562 28.003906 29.476562 28.300781 29.542969 C 28.257812 29.585938 28.214844 29.628906 28.171875 29.671875 C 27.957031 29.671875 27.957031 29.671875 27.703125 29.648438 C 27.621094 29.640625 27.535156 29.632812 27.449219 29.625 C 27.386719 29.621094 27.320312 29.613281 27.253906 29.609375 C 27.253906 29.585938 27.253906 29.566406 27.253906 29.542969 C 27.480469 29.511719 27.480469 29.511719 27.710938 29.476562 C 27.710938 29.457031 27.710938 29.433594 27.710938 29.410156 Z M 27.710938 29.410156 "/>
<path style=" stroke:none;fill-rule:nonzero;fill:rgb(80.784315%,80.784315%,80.784315%);fill-opacity:1;" d="M 34.574219 18.429688 C 34.574219 18.5625 34.574219 18.691406 34.574219 18.824219 C 34.347656 18.921875 34.347656 18.921875 34.117188 19.019531 C 34.074219 18.976562 34.03125 18.933594 33.988281 18.890625 C 34.023438 18.863281 34.0625 18.832031 34.097656 18.804688 C 34.148438 18.769531 34.195312 18.734375 34.246094 18.695312 C 34.292969 18.660156 34.339844 18.625 34.390625 18.589844 C 34.503906 18.503906 34.503906 18.503906 34.574219 18.429688 Z M 34.574219 18.429688 "/>
<path style=" stroke:none;fill-rule:nonzero;fill:rgb(10.196079%,10.196079%,10.196079%);fill-opacity:1;" d="M 11.4375 7.320312 C 11.460938 7.40625 11.480469 7.492188 11.503906 7.582031 C 11.351562 7.710938 11.203125 7.839844 11.046875 7.972656 C 11.023438 7.929688 11.003906 7.886719 10.980469 7.84375 C 11.132812 7.671875 11.28125 7.496094 11.4375 7.320312 Z M 11.4375 7.320312 "/>
<path style=" stroke:none;fill-rule:nonzero;fill:rgb(8.235294%,8.235294%,8.235294%);fill-opacity:1;" d="M 28.429688 32.679688 C 28.300781 32.84375 28.238281 32.875 28.027344 32.921875 C 27.9375 32.929688 27.9375 32.929688 27.84375 32.941406 C 27.863281 32.816406 27.863281 32.816406 27.910156 32.679688 C 28.125 32.609375 28.214844 32.628906 28.429688 32.679688 Z M 28.429688 32.679688 "/>
<path style=" stroke:none;fill-rule:nonzero;fill:rgb(13.725491%,13.725491%,13.725491%);fill-opacity:1;" d="M 19.085938 7.320312 C 19.128906 7.34375 19.171875 7.363281 19.214844 7.386719 C 19.203125 7.4375 19.191406 7.488281 19.179688 7.539062 C 19.132812 7.710938 19.132812 7.710938 19.214844 7.84375 C 19.085938 7.863281 18.957031 7.886719 18.824219 7.910156 C 18.910156 7.714844 18.996094 7.519531 19.085938 7.320312 Z M 19.085938 7.320312 "/>
<path style=" stroke:none;fill-rule:nonzero;fill:rgb(89.019608%,89.019608%,89.019608%);fill-opacity:1;" d="M 11.570312 11.046875 C 11.570312 11.242188 11.570312 11.242188 11.4375 11.4375 C 11.394531 11.4375 11.351562 11.4375 11.308594 11.4375 C 11.285156 11.523438 11.265625 11.609375 11.242188 11.699219 C 11.15625 11.679688 11.070312 11.65625 10.980469 11.632812 C 11.175781 11.441406 11.367188 11.246094 11.570312 11.046875 Z M 11.570312 11.046875 "/>
<path style=" stroke:none;fill-rule:nonzero;fill:rgb(76.47059%,76.47059%,76.47059%);fill-opacity:1;" d="M 20.785156 32.941406 C 20.882812 33.007812 20.882812 33.007812 20.980469 33.070312 C 21.007812 33.25 20.988281 33.414062 20.980469 33.59375 C 20.914062 33.59375 20.851562 33.59375 20.785156 33.59375 C 20.785156 33.378906 20.785156 33.164062 20.785156 32.941406 Z M 20.785156 32.941406 "/>
<path style=" stroke:none;fill-rule:nonzero;fill:rgb(8.235294%,8.235294%,8.235294%);fill-opacity:1;" d="M 13.332031 29.804688 C 13.566406 29.925781 13.695312 30.011719 13.789062 30.261719 C 13.558594 30.261719 13.496094 30.222656 13.332031 30.066406 C 13.332031 29.980469 13.332031 29.894531 13.332031 29.804688 Z M 13.332031 29.804688 "/>
<path style=" stroke:none;fill-rule:nonzero;fill:rgb(71.372551%,71.372551%,71.372551%);fill-opacity:1;" d="M 10.390625 27.191406 C 10.414062 27.191406 10.433594 27.191406 10.457031 27.191406 C 10.472656 27.320312 10.488281 27.449219 10.503906 27.578125 C 10.519531 27.726562 10.519531 27.726562 10.589844 27.910156 C 10.523438 28.003906 10.523438 28.003906 10.457031 28.105469 C 10.414062 28.105469 10.371094 28.105469 10.328125 28.105469 C 10.347656 27.800781 10.371094 27.5 10.390625 27.191406 Z M 10.390625 27.191406 "/>
<path style=" stroke:none;fill-rule:nonzero;fill:rgb(87.058824%,87.058824%,87.058824%);fill-opacity:1;" d="M 5.554688 18.628906 C 5.78125 18.757812 5.78125 18.757812 6.011719 18.890625 C 6.011719 18.953125 6.011719 19.019531 6.011719 19.085938 C 5.976562 19.066406 5.941406 19.042969 5.902344 19.023438 C 5.742188 18.949219 5.597656 18.917969 5.425781 18.890625 C 5.46875 18.800781 5.511719 18.714844 5.554688 18.628906 Z M 5.554688 18.628906 "/>
<path style=" stroke:none;fill-rule:nonzero;fill:rgb(95.294118%,95.294118%,95.294118%);fill-opacity:1;" d="M 31.570312 21.894531 C 31.632812 21.917969 31.699219 21.9375 31.765625 21.960938 C 31.667969 22.21875 31.667969 22.21875 31.570312 22.484375 C 31.4375 22.289062 31.4375 22.289062 31.457031 22.117188 C 31.503906 21.960938 31.503906 21.960938 31.570312 21.894531 Z M 31.570312 21.894531 "/>
<path style=" stroke:none;fill-rule:nonzero;fill:rgb(93.333334%,93.333334%,93.333334%);fill-opacity:1;" d="M 34.640625 21.4375 C 34.726562 21.460938 34.8125 21.480469 34.902344 21.503906 C 34.921875 21.652344 34.945312 21.804688 34.96875 21.960938 C 34.925781 21.960938 34.882812 21.960938 34.835938 21.960938 C 34.703125 21.769531 34.640625 21.671875 34.640625 21.4375 Z M 34.640625 21.4375 "/>
<path style=" stroke:none;fill-rule:nonzero;fill:rgb(91.764706%,91.764706%,91.764706%);fill-opacity:1;" d="M 11.371094 32.613281 C 11.535156 32.679688 11.535156 32.679688 11.699219 32.746094 C 11.546875 32.898438 11.453125 32.90625 11.242188 32.941406 C 11.21875 32.898438 11.199219 32.855469 11.175781 32.808594 C 11.242188 32.746094 11.304688 32.679688 11.371094 32.613281 Z M 11.371094 32.613281 "/>
<path style=" stroke:none;fill-rule:nonzero;fill:rgb(88.627452%,88.627452%,88.627452%);fill-opacity:1;" d="M 32.417969 21.175781 C 32.378906 21.191406 32.335938 21.207031 32.296875 21.226562 C 32.132812 21.320312 32.09375 21.398438 32.027344 21.570312 C 32.003906 21.570312 31.984375 21.570312 31.960938 21.570312 C 31.960938 21.460938 31.960938 21.351562 31.960938 21.242188 C 32.199219 21.101562 32.199219 21.101562 32.417969 21.175781 Z M 32.417969 21.175781 "/>
<path style=" stroke:none;fill-rule:nonzero;fill:rgb(85.09804%,85.09804%,85.09804%);fill-opacity:1;" d="M 31.699219 12.941406 C 31.722656 13.007812 31.742188 13.070312 31.765625 13.136719 C 31.511719 13.308594 31.277344 13.277344 30.980469 13.269531 C 30.980469 13.246094 30.980469 13.226562 30.980469 13.203125 C 31.152344 13.179688 31.324219 13.160156 31.503906 13.136719 C 31.503906 13.09375 31.503906 13.050781 31.503906 13.007812 C 31.566406 12.984375 31.632812 12.964844 31.699219 12.941406 Z M 31.699219 12.941406 "/>
<path style=" stroke:none;fill-rule:nonzero;fill:rgb(86.666667%,86.666667%,86.666667%);fill-opacity:1;" d="M 9.476562 10.785156 C 9.476562 10.804688 9.476562 10.828125 9.476562 10.851562 C 9.132812 10.828125 8.785156 10.804688 8.429688 10.785156 C 8.429688 10.761719 8.429688 10.742188 8.429688 10.71875 C 8.542969 10.703125 8.65625 10.691406 8.769531 10.679688 C 8.863281 10.667969 8.863281 10.667969 8.960938 10.65625 C 9.167969 10.652344 9.292969 10.695312 9.476562 10.785156 Z M 9.476562 10.785156 "/>
<path style=" stroke:none;fill-rule:nonzero;fill:rgb(91.764706%,91.764706%,91.764706%);fill-opacity:1;" d="M 9.214844 10.128906 C 9.347656 10.195312 9.347656 10.195312 9.410156 10.328125 C 9.183594 10.425781 9.183594 10.425781 8.953125 10.523438 C 8.933594 10.457031 8.910156 10.394531 8.890625 10.328125 C 9.042969 10.226562 9.042969 10.226562 9.214844 10.128906 Z M 9.214844 10.128906 "/>
<path style=" stroke:none;fill-rule:nonzero;fill:rgb(11.372549%,11.372549%,11.372549%);fill-opacity:1;" d="M 13.203125 9.019531 C 13.246094 9.042969 13.289062 9.0625 13.332031 9.085938 C 13.332031 9.128906 13.332031 9.171875 13.332031 9.214844 C 13.203125 9.3125 13.203125 9.3125 13.039062 9.421875 C 12.984375 9.457031 12.929688 9.492188 12.875 9.527344 C 12.832031 9.554688 12.789062 9.582031 12.746094 9.609375 C 12.703125 9.566406 12.660156 9.523438 12.613281 9.476562 C 12.675781 9.449219 12.734375 9.421875 12.796875 9.394531 C 13 9.285156 13.085938 9.210938 13.203125 9.019531 Z M 13.203125 9.019531 "/>
<path style=" stroke:none;fill-rule:nonzero;fill:rgb(23.921569%,23.921569%,23.921569%);fill-opacity:1;" d="M 10.523438 8.890625 C 10.566406 8.890625 10.609375 8.890625 10.652344 8.890625 C 10.679688 9.035156 10.679688 9.035156 10.652344 9.214844 C 10.457031 9.367188 10.457031 9.367188 10.261719 9.476562 C 10.339844 9.277344 10.421875 9.082031 10.523438 8.890625 Z M 10.523438 8.890625 "/>
<path style=" stroke:none;fill-rule:nonzero;fill:rgb(83.92157%,83.92157%,83.92157%);fill-opacity:1;" d="M 12.089844 7.972656 C 12.132812 7.996094 12.179688 8.015625 12.222656 8.039062 C 12.160156 8.113281 12.097656 8.1875 12.035156 8.261719 C 12 8.300781 11.964844 8.339844 11.929688 8.382812 C 11.855469 8.46875 11.777344 8.546875 11.699219 8.628906 C 11.726562 8.3125 11.859375 8.179688 12.089844 7.972656 Z M 12.089844 7.972656 "/>
<path style=" stroke:none;fill-rule:nonzero;fill:rgb(15.294118%,15.294118%,15.294118%);fill-opacity:1;" d="M 16.40625 5.230469 C 16.40625 5.425781 16.40625 5.425781 16.257812 5.59375 C 16.105469 5.726562 15.996094 5.800781 15.816406 5.882812 C 15.878906 5.808594 15.941406 5.738281 16 5.664062 C 16.035156 5.625 16.070312 5.585938 16.105469 5.542969 C 16.199219 5.433594 16.300781 5.332031 16.40625 5.230469 Z M 16.40625 5.230469 "/>
<path style=" stroke:none;fill-rule:nonzero;fill:rgb(15.294118%,15.294118%,15.294118%);fill-opacity:1;" d="M 5.75 21.175781 C 5.792969 21.199219 5.839844 21.21875 5.882812 21.242188 C 5.800781 21.335938 5.71875 21.433594 5.640625 21.527344 C 5.5625 21.625 5.492188 21.726562 5.425781 21.828125 C 5.402344 21.722656 5.382812 21.613281 5.359375 21.503906 C 5.488281 21.394531 5.617188 21.289062 5.75 21.175781 Z M 5.75 21.175781 "/>
<path style=" stroke:none;fill-rule:nonzero;fill:rgb(87.058824%,87.058824%,87.058824%);fill-opacity:1;" d="M 14.769531 8.890625 C 14.792969 8.933594 14.8125 8.976562 14.835938 9.019531 C 14.691406 9.183594 14.691406 9.183594 14.511719 9.347656 C 14.421875 9.347656 14.335938 9.347656 14.25 9.347656 C 14.417969 9.171875 14.570312 9.023438 14.769531 8.890625 Z M 14.769531 8.890625 "/>
<path style=" stroke:none;fill-rule:nonzero;fill:rgb(8.235294%,8.235294%,8.235294%);fill-opacity:1;" d="M 29.410156 8.953125 C 29.476562 9.019531 29.542969 9.082031 29.609375 9.148438 C 29.542969 9.347656 29.542969 9.347656 29.40625 9.425781 C 29.367188 9.441406 29.324219 9.460938 29.28125 9.476562 C 29.339844 9.101562 29.339844 9.101562 29.410156 8.953125 Z M 29.410156 8.953125 "/>
<path style=" stroke:none;fill-rule:nonzero;fill:rgb(89.803922%,89.803922%,89.803922%);fill-opacity:1;" d="M 28.429688 7.253906 C 28.539062 7.253906 28.648438 7.253906 28.757812 7.253906 C 28.78125 7.320312 28.800781 7.382812 28.824219 7.449219 C 28.867188 7.449219 28.910156 7.449219 28.953125 7.449219 C 28.933594 7.515625 28.910156 7.582031 28.890625 7.648438 C 28.8125 7.59375 28.734375 7.542969 28.660156 7.488281 C 28.617188 7.457031 28.574219 7.429688 28.53125 7.398438 C 28.5 7.371094 28.464844 7.347656 28.429688 7.320312 C 28.429688 7.296875 28.429688 7.277344 28.429688 7.253906 Z M 28.429688 7.253906 "/>
<path style=" stroke:none;fill-rule:nonzero;fill:rgb(13.725491%,13.725491%,13.725491%);fill-opacity:1;" d="M 15.6875 33.988281 C 15.839844 34.003906 15.839844 34.003906 16.011719 34.050781 C 16.097656 34.1875 16.097656 34.1875 16.144531 34.3125 C 16.078125 34.3125 16.015625 34.3125 15.949219 34.3125 C 15.804688 34.148438 15.804688 34.148438 15.6875 33.988281 Z M 15.6875 33.988281 "/>
<path style=" stroke:none;fill-rule:nonzero;fill:rgb(79.215688%,79.215688%,79.215688%);fill-opacity:1;" d="M 29.214844 30.785156 C 29.300781 30.871094 29.386719 30.957031 29.476562 31.046875 C 29.414062 31.066406 29.347656 31.089844 29.28125 31.109375 C 29.28125 31.242188 29.28125 31.371094 29.28125 31.503906 C 29.257812 31.503906 29.238281 31.503906 29.214844 31.503906 C 29.214844 31.265625 29.214844 31.027344 29.214844 30.785156 Z M 29.214844 30.785156 "/>
<path style=" stroke:none;fill-rule:nonzero;fill:rgb(86.274511%,86.274511%,86.274511%);fill-opacity:1;" d="M 11.699219 29.542969 C 11.742188 29.605469 11.785156 29.671875 11.828125 29.738281 C 11.453125 29.933594 11.453125 29.933594 11.308594 29.933594 C 11.328125 29.871094 11.351562 29.804688 11.371094 29.738281 C 11.414062 29.738281 11.457031 29.738281 11.503906 29.738281 C 11.503906 29.695312 11.503906 29.652344 11.503906 29.609375 C 11.566406 29.585938 11.632812 29.566406 11.699219 29.542969 Z M 11.699219 29.542969 "/>
<path style=" stroke:none;fill-rule:nonzero;fill:rgb(76.078433%,76.078433%,76.078433%);fill-opacity:1;" d="M 31.226562 29.207031 C 31.277344 29.207031 31.328125 29.210938 31.382812 29.210938 C 31.421875 29.210938 31.460938 29.214844 31.503906 29.214844 C 31.503906 29.238281 31.503906 29.257812 31.503906 29.28125 C 31.375 29.28125 31.246094 29.28125 31.109375 29.28125 C 31.089844 29.347656 31.066406 29.410156 31.046875 29.476562 C 30.917969 29.433594 30.785156 29.390625 30.652344 29.347656 C 30.855469 29.230469 30.996094 29.199219 31.226562 29.207031 Z M 31.226562 29.207031 "/>
<path style=" stroke:none;fill-rule:nonzero;fill:rgb(92.156863%,92.156863%,92.156863%);fill-opacity:1;" d="M 27.777344 28.953125 C 27.84375 28.976562 27.90625 28.996094 27.972656 29.019531 C 27.996094 29.085938 28.015625 29.148438 28.039062 29.214844 C 27.929688 29.257812 27.824219 29.300781 27.710938 29.347656 C 27.710938 29.390625 27.710938 29.433594 27.710938 29.476562 C 27.667969 29.476562 27.625 29.476562 27.582031 29.476562 C 27.65625 29.316406 27.714844 29.210938 27.84375 29.085938 C 27.820312 29.042969 27.800781 29 27.777344 28.953125 Z M 27.777344 28.953125 "/>
<path style=" stroke:none;fill-rule:nonzero;fill:rgb(78.039217%,78.039217%,78.039217%);fill-opacity:1;" d="M 30.851562 10.785156 C 30.625 10.933594 30.460938 10.949219 30.195312 10.980469 C 30.195312 10.9375 30.195312 10.894531 30.195312 10.851562 C 30.441406 10.730469 30.585938 10.707031 30.851562 10.785156 Z M 30.851562 10.785156 "/>
<path style=" stroke:none;fill-rule:nonzero;fill:rgb(86.666667%,86.666667%,86.666667%);fill-opacity:1;" d="M 29.085938 9.671875 C 29 9.863281 28.910156 9.992188 28.757812 10.128906 C 28.714844 10.085938 28.671875 10.042969 28.628906 10 C 28.9375 9.671875 28.9375 9.671875 29.085938 9.671875 Z M 29.085938 9.671875 "/>
<path style=" stroke:none;fill-rule:nonzero;fill:rgb(18.039216%,18.039216%,18.039216%);fill-opacity:1;" d="M 19.148438 34.183594 C 19.347656 34.25 19.347656 34.25 19.476562 34.378906 C 19.261719 34.421875 19.046875 34.464844 18.824219 34.511719 C 18.84375 34.445312 18.867188 34.378906 18.890625 34.3125 C 19.019531 34.347656 19.019531 34.347656 19.148438 34.378906 C 19.148438 34.3125 19.148438 34.25 19.148438 34.183594 Z M 19.148438 34.183594 "/>
<path style=" stroke:none;fill-rule:nonzero;fill:rgb(93.333334%,93.333334%,93.333334%);fill-opacity:1;" d="M 20.980469 32.550781 C 21.066406 32.804688 20.996094 32.949219 20.914062 33.203125 C 20.894531 33.203125 20.871094 33.203125 20.851562 33.203125 C 20.835938 32.808594 20.835938 32.808594 20.851562 32.679688 C 20.894531 32.636719 20.9375 32.59375 20.980469 32.550781 Z M 20.980469 32.550781 "/>
<path style=" stroke:none;fill-rule:nonzero;fill:rgb(89.019608%,89.019608%,89.019608%);fill-opacity:1;" d="M 34.050781 24.183594 C 34.117188 24.203125 34.183594 24.226562 34.25 24.25 C 34.167969 24.492188 34.078125 24.523438 33.855469 24.640625 C 33.855469 24.410156 33.910156 24.355469 34.050781 24.183594 Z M 34.050781 24.183594 "/>
<path style=" stroke:none;fill-rule:nonzero;fill:rgb(7.843138%,7.843138%,7.843138%);fill-opacity:1;" d="M 7.710938 18.429688 C 7.777344 18.453125 7.84375 18.472656 7.910156 18.496094 C 7.800781 18.605469 7.691406 18.710938 7.582031 18.824219 C 7.558594 18.738281 7.539062 18.652344 7.515625 18.5625 C 7.582031 18.519531 7.644531 18.476562 7.710938 18.429688 Z M 7.710938 18.429688 "/>
<path style=" stroke:none;fill-rule:nonzero;fill:rgb(89.803922%,89.803922%,89.803922%);fill-opacity:1;" d="M 5.03125 16.210938 C 5.160156 16.273438 5.160156 16.273438 5.292969 16.339844 C 5.230469 16.511719 5.164062 16.683594 5.097656 16.863281 C 5.023438 16.636719 5.027344 16.445312 5.03125 16.210938 Z M 5.03125 16.210938 "/>
<path style=" stroke:none;fill-rule:nonzero;fill:rgb(6.27451%,6.27451%,6.27451%);fill-opacity:1;" d="M 19.214844 7.515625 C 19.324219 7.535156 19.433594 7.558594 19.542969 7.582031 C 19.519531 7.644531 19.5 7.710938 19.476562 7.777344 C 19.371094 7.777344 19.261719 7.777344 19.148438 7.777344 C 19.148438 7.582031 19.148438 7.582031 19.214844 7.515625 Z M 19.214844 7.515625 "/>
<path style=" stroke:none;fill-rule:nonzero;fill:rgb(84.313726%,84.313726%,84.313726%);fill-opacity:1;" d="M 18.757812 5.425781 C 18.890625 5.488281 18.890625 5.488281 18.960938 5.691406 C 18.980469 5.753906 19 5.816406 19.019531 5.882812 C 18.953125 5.882812 18.890625 5.882812 18.824219 5.882812 C 18.714844 5.71875 18.714844 5.71875 18.628906 5.554688 C 18.671875 5.554688 18.714844 5.554688 18.757812 5.554688 C 18.757812 5.511719 18.757812 5.46875 18.757812 5.425781 Z M 18.757812 5.425781 "/>
<path style=" stroke:none;fill-rule:nonzero;fill:rgb(81.568629%,81.568629%,81.568629%);fill-opacity:1;" d="M 24.902344 33.464844 C 24.945312 33.484375 24.988281 33.507812 25.03125 33.53125 C 24.957031 33.589844 24.957031 33.589844 24.882812 33.648438 C 24.75 33.757812 24.628906 33.863281 24.511719 33.988281 C 24.511719 33.789062 24.511719 33.789062 24.59375 33.699219 C 24.699219 33.621094 24.800781 33.542969 24.902344 33.464844 Z M 24.902344 33.464844 "/>
<path style=" stroke:none;fill-rule:nonzero;fill:rgb(76.47059%,76.47059%,76.47059%);fill-opacity:1;" d="M 12.222656 30.457031 C 12.640625 30.433594 12.640625 30.433594 12.839844 30.554688 C 12.871094 30.589844 12.90625 30.621094 12.941406 30.652344 C 12.832031 30.675781 12.726562 30.695312 12.613281 30.71875 C 12.613281 30.652344 12.613281 30.589844 12.613281 30.523438 C 12.484375 30.523438 12.355469 30.523438 12.222656 30.523438 C 12.222656 30.5 12.222656 30.480469 12.222656 30.457031 Z M 12.222656 30.457031 "/>
<path style=" stroke:none;fill-rule:nonzero;fill:rgb(10.980392%,10.980392%,10.980392%);fill-opacity:1;" d="M 33.726562 17.972656 C 33.789062 17.996094 33.855469 18.015625 33.921875 18.039062 C 33.921875 18.105469 33.921875 18.167969 33.921875 18.234375 C 33.8125 18.257812 33.707031 18.277344 33.59375 18.300781 C 33.59375 18.214844 33.59375 18.128906 33.59375 18.039062 C 33.636719 18.019531 33.679688 17.996094 33.726562 17.972656 Z M 33.726562 17.972656 "/>
<path style=" stroke:none;fill-rule:nonzero;fill:rgb(6.666667%,6.666667%,6.666667%);fill-opacity:1;" d="M 30.457031 12.808594 C 30.5 12.808594 30.542969 12.808594 30.589844 12.808594 C 30.632812 12.898438 30.675781 12.984375 30.71875 13.070312 C 30.652344 13.167969 30.652344 13.167969 30.589844 13.269531 C 30.566406 13.203125 30.546875 13.136719 30.523438 13.070312 C 30.480469 13.070312 30.4375 13.070312 30.390625 13.070312 C 30.414062 12.984375 30.433594 12.898438 30.457031 12.808594 Z M 30.457031 12.808594 "/>
<path style=" stroke:none;fill-rule:nonzero;fill:rgb(90.196079%,90.196079%,90.196079%);fill-opacity:1;" d="M 11.308594 10.066406 C 11.617188 10.1875 11.617188 10.1875 11.765625 10.261719 C 11.765625 10.304688 11.765625 10.347656 11.765625 10.390625 C 11.609375 10.375 11.609375 10.375 11.4375 10.328125 C 11.351562 10.191406 11.351562 10.191406 11.308594 10.066406 Z M 11.308594 10.066406 "/>
<path style=" stroke:none;fill-rule:nonzero;fill:rgb(76.47059%,76.47059%,76.47059%);fill-opacity:1;" d="M 11.046875 9.804688 C 11.300781 9.917969 11.300781 9.917969 11.371094 10.066406 C 11.328125 10.109375 11.285156 10.152344 11.242188 10.195312 C 11.15625 10.089844 11.070312 9.980469 10.980469 9.871094 C 11.003906 9.847656 11.023438 9.824219 11.046875 9.804688 Z M 11.046875 9.804688 "/>
<path style=" stroke:none;fill-rule:nonzero;fill:rgb(23.529412%,23.529412%,23.529412%);fill-opacity:1;" d="M 28.300781 8.496094 C 28.320312 8.496094 28.34375 8.496094 28.367188 8.496094 C 28.382812 8.589844 28.398438 8.683594 28.410156 8.777344 C 28.417969 8.832031 28.425781 8.882812 28.4375 8.9375 C 28.429688 9.085938 28.429688 9.085938 28.335938 9.203125 C 28.300781 9.226562 28.269531 9.253906 28.234375 9.28125 C 28.191406 9.257812 28.148438 9.238281 28.105469 9.214844 C 28.148438 9.152344 28.191406 9.085938 28.234375 9.019531 C 28.265625 8.886719 28.265625 8.886719 28.277344 8.746094 C 28.285156 8.664062 28.292969 8.582031 28.300781 8.496094 Z M 28.300781 8.496094 "/>
<path style=" stroke:none;fill-rule:nonzero;fill:rgb(14.901961%,14.901961%,14.901961%);fill-opacity:1;" d="M 15.230469 6.339844 C 15.273438 6.40625 15.316406 6.46875 15.359375 6.535156 C 15.058594 6.675781 15.058594 6.675781 14.835938 6.601562 C 14.964844 6.515625 15.09375 6.429688 15.230469 6.339844 Z M 15.230469 6.339844 "/>
<path style=" stroke:none;fill-rule:nonzero;fill:rgb(95.294118%,95.294118%,95.294118%);fill-opacity:1;" d="M 19.28125 5.292969 C 19.300781 5.335938 19.324219 5.378906 19.347656 5.425781 C 19.390625 5.445312 19.433594 5.46875 19.476562 5.488281 C 19.457031 5.535156 19.433594 5.578125 19.410156 5.621094 C 19.261719 5.597656 19.109375 5.578125 18.953125 5.554688 C 18.996094 5.511719 19.039062 5.46875 19.085938 5.425781 C 19.148438 5.425781 19.214844 5.425781 19.28125 5.425781 C 19.28125 5.382812 19.28125 5.339844 19.28125 5.292969 Z M 19.28125 5.292969 "/>
</g>
</svg>
